<svg width="272" height="348" viewBox="0 0 272 348" fill="none" xmlns="http://www.w3.org/2000/svg">
<path d="M88.0283 0.5V89.0283H176.557V265.085H89.0283V176.557H0.5V0.5H88.0283Z" stroke="#787162" stroke-opacity="0.5"/>
<path d="M168.575 298.16L203.217 298.16L203.217 263.519L271.5 263.519L271.5 297.16L236.859 297.16L236.859 331.802L168.575 331.802L168.575 298.16Z" stroke="#787162" stroke-opacity="0.5"/>
<path fill-rule="evenodd" clip-rule="evenodd" d="M46.1887 209.132H0V255.321V301.509V347.698H46.1887H92.3774V301.509H46.1887V255.321V209.132Z" fill="#1C1B18" fill-opacity="0.7"/>
<path d="M45.6885 209.632V302.009H91.877V347.198H0.5V209.632H45.6885Z" stroke="#787162" stroke-opacity="0.5"/>
<path d="M111.623 58.3281L176.415 15.3962L241.207 58.3281V150.113H111.623V58.3281Z" fill="#1C1B18" fill-opacity="0.7"/>
<path d="M240.708 58.5964V149.613H112.123V58.5964L176.415 15.9958L240.708 58.5964Z" stroke="#787162" stroke-opacity="0.5"/>
</svg>
