<svg width="130" height="122" viewBox="0 0 130 122" fill="none" xmlns="http://www.w3.org/2000/svg">
<path d="M103.098 32.9365L129.569 59.4082V121.449H57.3057V32.9365H103.098ZM64.5693 114.187H122.306V64.5742H97.9307V40.1992H64.5693V114.187ZM8.1084 0.435547L8.11719 0.436523H38.5938C40.4713 0.436523 42.0589 0.624143 43.3643 0.991211C44.6875 1.36337 45.8812 1.85863 46.9473 2.47363C48.0317 3.09927 48.9868 3.74295 49.8135 4.4043C50.6633 5.08412 51.5132 5.74334 52.3633 6.38086C53.247 7.04363 54.2195 7.5513 55.2783 7.9043C56.336 8.25685 57.5382 8.47405 58.8789 8.56055L58.8926 8.56152H121.875C122.963 8.56152 123.962 8.76234 124.877 9.16016C125.803 9.56272 126.604 10.1047 127.283 10.7842C127.963 11.4639 128.527 12.2873 128.974 13.2607C129.411 14.2157 129.609 15.2067 129.569 16.2383V43.8428L122.306 36.5791V15.8242H58.9062C57.5538 15.8242 56.3556 16.0201 55.3213 16.4248C54.3134 16.8192 53.3509 17.3445 52.4346 17.999C51.5396 18.6383 50.6659 19.2995 49.8135 19.9814C48.9842 20.6449 48.0484 21.2899 47.0049 21.916C45.9899 22.525 44.8043 22.9962 43.4434 23.3262C42.081 23.6564 40.4591 23.8654 38.5742 23.9492H7.69434V97.9365H48.3193V105.199H0.430664V8.12988C0.430714 7.04201 0.632486 6.04284 1.03027 5.12793C1.43276 4.20234 1.97403 3.40201 2.65332 2.72266C3.33309 2.04288 4.15726 1.47846 5.13086 1.03223C6.08597 0.594468 7.07671 0.395875 8.1084 0.435547ZM105.194 57.3115H117.14L105.194 45.3662V57.3115ZM7.69434 16.6865H38.5938C39.632 16.6865 40.5535 16.5997 41.3535 16.4219C42.1578 16.2431 42.8997 15.9518 43.5762 15.5459C44.2267 15.1556 44.8555 14.7216 45.4619 14.2451C46.063 13.7728 46.7467 13.1955 47.5127 12.5146L47.877 12.1914L47.5117 11.8691C46.7878 11.2304 46.1257 10.6748 45.5254 10.2031C44.9151 9.72358 44.2612 9.28881 43.5654 8.89746C42.8549 8.49782 42.1191 8.20731 41.3584 8.02832C40.6036 7.85073 39.6859 7.74222 38.6113 7.69922H7.69434V16.6865Z" stroke="#EBD197" stroke-width="0.862069"/>
</svg>
