<svg width="145" height="119" viewBox="0 0 145 119" fill="none" xmlns="http://www.w3.org/2000/svg">
<mask id="path-1-inside-1_45_398" fill="white">
<path d="M0 118.5V100.067C0 96.4458 0.932639 93.0444 2.79792 89.8625C4.66319 86.6806 7.24167 84.2667 10.5333 82.6208C16.1292 79.7681 22.4382 77.3542 29.4604 75.3792C36.4826 73.4042 44.2181 72.4167 52.6667 72.4167C61.1153 72.4167 68.8507 73.4042 75.8729 75.3792C82.8951 77.3542 89.2042 79.7681 94.8 82.6208C98.0917 84.2667 100.67 86.6806 102.535 89.8625C104.401 93.0444 105.333 96.4458 105.333 100.067V118.5H0ZM52.6667 65.8333C45.425 65.8333 39.2257 63.2549 34.0687 58.0979C28.9118 52.941 26.3333 46.7417 26.3333 39.5H24.6875C23.7 39.5 22.9056 39.1994 22.3043 38.5981C21.7031 37.9968 21.4002 37.2002 21.3958 36.2083C21.3914 35.2164 21.6943 34.4199 22.3043 33.8186C22.9144 33.2173 23.7088 32.9167 24.6875 32.9167H26.3333C26.3333 27.9792 27.5403 23.5354 29.9542 19.5854C32.3681 15.6354 35.55 12.5083 39.5 10.2042V16.4583C39.5 17.4458 39.8028 18.2424 40.4085 18.8481C41.0142 19.4538 41.8086 19.7544 42.7917 19.75C43.7748 19.7456 44.5714 19.445 45.1814 18.8481C45.7915 18.2512 46.0921 17.4546 46.0833 16.4583V7.57083C47.0708 7.24167 48.1132 6.99589 49.2104 6.8335C50.3076 6.67111 51.4597 6.58772 52.6667 6.58333C53.8736 6.57894 55.0257 6.66233 56.1229 6.8335C57.2201 7.00467 58.2625 7.25045 59.25 7.57083V16.4583C59.25 17.4458 59.5528 18.2424 60.1585 18.8481C60.7642 19.4538 61.5586 19.7544 62.5417 19.75C63.5248 19.7456 64.3214 19.445 64.9314 18.8481C65.5415 18.2512 65.8421 17.4546 65.8333 16.4583V10.2042C69.7833 12.5083 72.9653 15.6354 75.3792 19.5854C77.7931 23.5354 79 27.9792 79 32.9167H80.6458C81.6333 32.9167 82.4299 33.2195 83.0356 33.8252C83.6412 34.4308 83.9419 35.2252 83.9375 36.2083C83.9331 37.1914 83.6325 37.988 83.0356 38.5981C82.4387 39.2081 81.6421 39.5088 80.6458 39.5H79C79 46.7417 76.4215 52.941 71.2646 58.0979C66.1076 63.2549 59.9083 65.8333 52.6667 65.8333ZM52.6667 52.6667C56.2875 52.6667 59.3882 51.3785 61.9689 48.8023C64.5496 46.226 65.8377 43.1252 65.8333 39.5H39.5C39.5 43.1208 40.7903 46.2216 43.371 48.8023C45.9517 51.3829 49.0502 52.6711 52.6667 52.6667ZM102.042 79L101.054 74.0625C100.396 73.8431 99.766 73.5973 99.1647 73.3252C98.5635 73.0531 97.9863 72.6405 97.4333 72.0875L92.825 73.7333L89.5333 67.8083L93.1542 64.5167V60.5667L89.5333 57.275L92.825 51.35L97.4333 52.9958C97.8722 52.5569 98.4208 52.1729 99.0792 51.8438C99.7375 51.5146 100.396 51.2403 101.054 51.0208L102.042 46.0833H108.625L109.613 51.0208C110.271 51.2403 110.929 51.5146 111.588 51.8438C112.246 52.1729 112.794 52.5569 113.233 52.9958L117.842 51.35L121.133 57.275L117.512 60.5667V64.5167L121.133 67.8083L117.842 73.7333L113.233 72.0875C112.685 72.6361 112.11 73.0487 111.509 73.3252C110.907 73.6017 110.275 73.8474 109.613 74.0625L108.625 79H102.042ZM105.333 67.4792C106.65 67.4792 107.802 66.9854 108.79 65.9979C109.777 65.0104 110.271 63.8583 110.271 62.5417C110.271 61.225 109.777 60.0729 108.79 59.0854C107.802 58.0979 106.65 57.6042 105.333 57.6042C104.017 57.6042 102.865 58.0979 101.877 59.0854C100.89 60.0729 100.396 61.225 100.396 62.5417C100.396 63.8583 100.89 65.0104 101.877 65.9979C102.865 66.9854 104.017 67.4792 105.333 67.4792ZM117.183 46.0833L115.867 39.1708C114.879 38.8417 113.975 38.4313 113.154 37.9397C112.334 37.4482 111.592 36.8711 110.929 36.2083L104.017 38.5125L99.4083 30.6125L105.004 25.675C104.785 25.1264 104.675 24.6875 104.675 24.3583V21.725C104.675 21.3958 104.785 20.9569 105.004 20.4083L99.4083 15.4708L104.017 7.57083L110.929 9.875C111.587 9.21667 112.329 8.63953 113.154 8.14358C113.979 7.64764 114.884 7.23728 115.867 6.9125L117.183 0H126.4L127.717 6.9125C128.704 7.24167 129.61 7.65422 130.436 8.15017C131.261 8.64611 132 9.22106 132.654 9.875L139.567 7.57083L144.175 15.4708L138.579 20.4083C138.799 20.9569 138.908 21.3958 138.908 21.725V24.3583C138.908 24.6875 138.799 25.1264 138.579 25.675L144.175 30.6125L139.567 38.5125L132.654 36.2083C131.996 36.8667 131.256 37.4438 130.436 37.9397C129.615 38.4357 128.709 38.8461 127.717 39.1708L126.4 46.0833H117.183ZM121.792 31.2708C124.096 31.2708 126.044 30.4743 127.638 28.8811C129.231 27.2879 130.025 25.3414 130.021 23.0417C130.016 20.7419 129.22 18.7932 127.631 17.1957C126.042 15.5981 124.096 14.8037 121.792 14.8125C119.487 14.8213 117.539 15.6179 115.946 17.2022C114.353 18.7866 113.558 20.7331 113.562 23.0417C113.567 25.3502 114.363 27.2989 115.952 28.8877C117.541 30.4764 119.487 31.2708 121.792 31.2708Z"/>
</mask>
<path d="M0 118.5V100.067C0 96.4458 0.932639 93.0444 2.79792 89.8625C4.66319 86.6806 7.24167 84.2667 10.5333 82.6208C16.1292 79.7681 22.4382 77.3542 29.4604 75.3792C36.4826 73.4042 44.2181 72.4167 52.6667 72.4167C61.1153 72.4167 68.8507 73.4042 75.8729 75.3792C82.8951 77.3542 89.2042 79.7681 94.8 82.6208C98.0917 84.2667 100.67 86.6806 102.535 89.8625C104.401 93.0444 105.333 96.4458 105.333 100.067V118.5H0ZM52.6667 65.8333C45.425 65.8333 39.2257 63.2549 34.0687 58.0979C28.9118 52.941 26.3333 46.7417 26.3333 39.5H24.6875C23.7 39.5 22.9056 39.1994 22.3043 38.5981C21.7031 37.9968 21.4002 37.2002 21.3958 36.2083C21.3914 35.2164 21.6943 34.4199 22.3043 33.8186C22.9144 33.2173 23.7088 32.9167 24.6875 32.9167H26.3333C26.3333 27.9792 27.5403 23.5354 29.9542 19.5854C32.3681 15.6354 35.55 12.5083 39.5 10.2042V16.4583C39.5 17.4458 39.8028 18.2424 40.4085 18.8481C41.0142 19.4538 41.8086 19.7544 42.7917 19.75C43.7748 19.7456 44.5714 19.445 45.1814 18.8481C45.7915 18.2512 46.0921 17.4546 46.0833 16.4583V7.57083C47.0708 7.24167 48.1132 6.99589 49.2104 6.8335C50.3076 6.67111 51.4597 6.58772 52.6667 6.58333C53.8736 6.57894 55.0257 6.66233 56.1229 6.8335C57.2201 7.00467 58.2625 7.25045 59.25 7.57083V16.4583C59.25 17.4458 59.5528 18.2424 60.1585 18.8481C60.7642 19.4538 61.5586 19.7544 62.5417 19.75C63.5248 19.7456 64.3214 19.445 64.9314 18.8481C65.5415 18.2512 65.8421 17.4546 65.8333 16.4583V10.2042C69.7833 12.5083 72.9653 15.6354 75.3792 19.5854C77.7931 23.5354 79 27.9792 79 32.9167H80.6458C81.6333 32.9167 82.4299 33.2195 83.0356 33.8252C83.6412 34.4308 83.9419 35.2252 83.9375 36.2083C83.9331 37.1914 83.6325 37.988 83.0356 38.5981C82.4387 39.2081 81.6421 39.5088 80.6458 39.5H79C79 46.7417 76.4215 52.941 71.2646 58.0979C66.1076 63.2549 59.9083 65.8333 52.6667 65.8333ZM52.6667 52.6667C56.2875 52.6667 59.3882 51.3785 61.9689 48.8023C64.5496 46.226 65.8377 43.1252 65.8333 39.5H39.5C39.5 43.1208 40.7903 46.2216 43.371 48.8023C45.9517 51.3829 49.0502 52.6711 52.6667 52.6667ZM102.042 79L101.054 74.0625C100.396 73.8431 99.766 73.5973 99.1647 73.3252C98.5635 73.0531 97.9863 72.6405 97.4333 72.0875L92.825 73.7333L89.5333 67.8083L93.1542 64.5167V60.5667L89.5333 57.275L92.825 51.35L97.4333 52.9958C97.8722 52.5569 98.4208 52.1729 99.0792 51.8438C99.7375 51.5146 100.396 51.2403 101.054 51.0208L102.042 46.0833H108.625L109.613 51.0208C110.271 51.2403 110.929 51.5146 111.588 51.8438C112.246 52.1729 112.794 52.5569 113.233 52.9958L117.842 51.35L121.133 57.275L117.512 60.5667V64.5167L121.133 67.8083L117.842 73.7333L113.233 72.0875C112.685 72.6361 112.11 73.0487 111.509 73.3252C110.907 73.6017 110.275 73.8474 109.613 74.0625L108.625 79H102.042ZM105.333 67.4792C106.65 67.4792 107.802 66.9854 108.79 65.9979C109.777 65.0104 110.271 63.8583 110.271 62.5417C110.271 61.225 109.777 60.0729 108.79 59.0854C107.802 58.0979 106.65 57.6042 105.333 57.6042C104.017 57.6042 102.865 58.0979 101.877 59.0854C100.89 60.0729 100.396 61.225 100.396 62.5417C100.396 63.8583 100.89 65.0104 101.877 65.9979C102.865 66.9854 104.017 67.4792 105.333 67.4792ZM117.183 46.0833L115.867 39.1708C114.879 38.8417 113.975 38.4313 113.154 37.9397C112.334 37.4482 111.592 36.8711 110.929 36.2083L104.017 38.5125L99.4083 30.6125L105.004 25.675C104.785 25.1264 104.675 24.6875 104.675 24.3583V21.725C104.675 21.3958 104.785 20.9569 105.004 20.4083L99.4083 15.4708L104.017 7.57083L110.929 9.875C111.587 9.21667 112.329 8.63953 113.154 8.14358C113.979 7.64764 114.884 7.23728 115.867 6.9125L117.183 0H126.4L127.717 6.9125C128.704 7.24167 129.61 7.65422 130.436 8.15017C131.261 8.64611 132 9.22106 132.654 9.875L139.567 7.57083L144.175 15.4708L138.579 20.4083C138.799 20.9569 138.908 21.3958 138.908 21.725V24.3583C138.908 24.6875 138.799 25.1264 138.579 25.675L144.175 30.6125L139.567 38.5125L132.654 36.2083C131.996 36.8667 131.256 37.4438 130.436 37.9397C129.615 38.4357 128.709 38.8461 127.717 39.1708L126.4 46.0833H117.183ZM121.792 31.2708C124.096 31.2708 126.044 30.4743 127.638 28.8811C129.231 27.2879 130.025 25.3414 130.021 23.0417C130.016 20.7419 129.22 18.7932 127.631 17.1957C126.042 15.5981 124.096 14.8037 121.792 14.8125C119.487 14.8213 117.539 15.6179 115.946 17.2022C114.353 18.7866 113.558 20.7331 113.562 23.0417C113.567 25.3502 114.363 27.2989 115.952 28.8877C117.541 30.4764 119.487 31.2708 121.792 31.2708Z" stroke="#EBD197" stroke-width="1.72414" mask="url(#path-1-inside-1_45_398)"/>
</svg>
