<svg width="119" height="119" viewBox="0 0 119 119" fill="none" xmlns="http://www.w3.org/2000/svg">
<path d="M85.5908 32.6861L85.585 85.5904H32.6807V32.6861H85.5908Z" stroke="#EBD197" stroke-width="0.862069"/>
<path d="M31.8242 0.430664V11.1807H43.4365V0.430664H53.335V11.1807H64.9473V0.430664H74.8408V11.1807H86.4521V0.430664H96.3457V11.1807H107.096V21.9307H117.846V31.8242H107.096V43.4365H117.846V53.335H107.096V64.9473H117.846V74.8408H107.096V86.4521H117.846V96.3457H107.091V107.096H96.3408V117.846H86.4473V107.096H74.835V117.846H64.9414V107.096H53.3301V117.846H43.4365V107.096H31.8242V117.846H21.9307V107.091H11.1807V96.3408H0.430664V86.4473H11.1807V74.835H0.430664V64.9414H11.1807V53.3301H0.430664V43.4365H11.1807V31.8242H0.430664V21.9307H11.1807V11.1807H21.9307V0.430664H31.8242ZM21.0693 97.2021H97.208V96.7715L97.1973 21.5049V21.0742H21.0693V97.2021Z" stroke="#EBD197" stroke-width="0.862069"/>
</svg>
