<svg width="150" height="123" viewBox="0 0 150 123" fill="none" xmlns="http://www.w3.org/2000/svg">
<path d="M149.031 57.2148L141.387 67.4062L122.689 53.0498L121.995 52.5176V82.0488H135.599V94.7891H121.995V121.995H109.255V94.7891H81.1865V121.995H68.4453V94.7891H40.3779V121.995H27.6367V94.7891H14.0342V82.0488H27.6367V52.5176L26.9434 53.0498L8.24512 67.4072L0.600586 57.2148L74.8164 0.541992L149.031 57.2148ZM67.7529 21.9316L40.5479 42.6768L40.3779 42.8057V82.0488H68.4453V21.4043L67.7529 21.9316ZM109.255 42.8057L109.085 42.6768L81.8789 21.9316L81.1865 21.4043V82.0488H109.255V42.8057Z" stroke="#EBD197" stroke-width="0.862069"/>
</svg>
