<?xml version="1.0" encoding="UTF-8"?>
<svg id="Camada_2" data-name="Camada 2" xmlns="http://www.w3.org/2000/svg" viewBox="0 0 716.81 257.23">
  <defs>
    <style>
      .cls-1 {
        fill: #b95d40;
      }

      .cls-2 {
        fill: #f9f6f1;
      }
    </style>
  </defs>
  <g id="Camada_1-2" data-name="Camada 1">
    <g>
      <path class="cls-1" d="M195.27,0v179.87H33.23l129.34-88.74v-23.53l-76.83,52.71v-18.86h-20.12v32.26L0,179.37v20.62h244.96l36.89,31.1H0v20.12h332.23V76.55l-21.13-11.83L195.27,0ZM312.11,233.54l-60.19-53.67h-38.13V32.09l98.32,55.34v146.11Z"/>
      <g>
        <path class="cls-2" d="M369.64,240.32c0-6.44,3.79-10.38,8.89-10.38,2.44,0,4.34,1.16,5.5,2.47l-1.37,1.65c-1.07-1.13-2.38-1.89-4.09-1.89-3.79,0-6.29,3.11-6.29,8.09s2.41,8.21,6.2,8.21c1.92,0,3.36-.85,4.64-2.26l1.4,1.59c-1.59,1.83-3.54,2.9-6.14,2.9-5.01,0-8.73-3.85-8.73-10.38Z"/>
        <path class="cls-2" d="M386.19,240.23c0-6.41,3.51-10.29,8.55-10.29s8.58,3.91,8.58,10.29-3.54,10.47-8.58,10.47-8.55-4.03-8.55-10.47ZM400.66,240.23c0-4.98-2.35-8.06-5.92-8.06s-5.92,3.08-5.92,8.06,2.35,8.24,5.92,8.24,5.92-3.24,5.92-8.24Z"/>
        <path class="cls-2" d="M407.62,230.3h2.63l7.24,12.58,2.17,4.15h.12c-.12-2.02-.31-4.27-.31-6.38v-10.35h2.41v20.03h-2.63l-7.27-12.61-2.17-4.12h-.12c.15,2.02.34,4.15.34,6.26v10.47h-2.41v-20.03Z"/>
        <path class="cls-2" d="M425.9,247.74l1.53-1.77c1.44,1.5,3.45,2.5,5.53,2.5,2.63,0,4.18-1.31,4.18-3.27s-1.44-2.69-3.33-3.54l-2.87-1.25c-1.89-.79-4.06-2.23-4.06-5.16s2.66-5.31,6.29-5.31c2.38,0,4.49,1.01,5.92,2.47l-1.37,1.65c-1.22-1.16-2.69-1.89-4.55-1.89-2.23,0-3.72,1.13-3.72,2.93,0,1.92,1.74,2.66,3.33,3.33l2.84,1.22c2.32,1.01,4.12,2.38,4.12,5.34,0,3.18-2.6,5.71-6.81,5.71-2.81,0-5.28-1.16-7.02-2.96Z"/>
        <path class="cls-2" d="M447.21,232.44h-6.05v-2.14h14.66v2.14h-6.05v17.89h-2.56v-17.89Z"/>
        <path class="cls-2" d="M459.42,230.3h6.26c4.09,0,7.02,1.47,7.02,5.62,0,3.11-1.77,5.01-4.52,5.68l5.1,8.73h-2.87l-4.82-8.46h-3.63v8.46h-2.53v-20.03ZM465.31,239.8c3.11,0,4.85-1.28,4.85-3.88s-1.74-3.57-4.85-3.57h-3.36v7.45h3.36Z"/>
        <path class="cls-2" d="M476.7,242.06v-11.76h2.53v11.82c0,4.82,2.05,6.35,4.67,6.35s4.73-1.53,4.73-6.35v-11.82h2.44v11.76c0,6.44-3.08,8.64-7.18,8.64s-7.21-2.2-7.21-8.64Z"/>
        <path class="cls-2" d="M501.3,256.01c2.56-.18,3.33-.64,3.33-1.53,0-.79-.61-1.22-2.35-1.47l1.13-2.35c-4.67-.31-8.09-4.09-8.09-10.35s3.79-10.38,8.89-10.38c2.44,0,4.34,1.16,5.5,2.47l-1.37,1.65c-1.07-1.13-2.38-1.89-4.09-1.89-3.79,0-6.29,3.11-6.29,8.09s2.41,8.21,6.2,8.21c1.92,0,3.36-.85,4.64-2.26l1.4,1.59c-1.37,1.59-3.02,2.6-5.13,2.84l-.7,1.65c1.4.34,2.23.92,2.23,2.17,0,1.77-1.8,2.63-5.04,2.78l-.24-1.22Z"/>
        <path class="cls-2" d="M511.86,240.23c0-6.41,3.51-10.29,8.55-10.29s8.58,3.91,8.58,10.29-3.54,10.47-8.58,10.47-8.55-4.03-8.55-10.47ZM526.34,240.23c0-4.98-2.35-8.06-5.92-8.06s-5.92,3.08-5.92,8.06,2.35,8.24,5.92,8.24,5.92-3.24,5.92-8.24ZM518.18,226.52c-.76,0-1.34.7-1.47,2.02l-1.71-.12c.12-2.32,1.28-3.76,3.11-3.76,2.29,0,3.08,2.17,4.52,2.17.76,0,1.31-.7,1.47-2.02l1.71.12c-.12,2.35-1.28,3.76-3.11,3.76-2.29,0-3.08-2.17-4.52-2.17Z"/>
        <path class="cls-2" d="M533.29,230.3h11.54v2.14h-9.01v6.29h7.6v2.17h-7.6v7.27h9.31v2.17h-11.85v-20.03Z"/>
        <path class="cls-2" d="M547.91,247.74l1.53-1.77c1.44,1.5,3.45,2.5,5.53,2.5,2.63,0,4.18-1.31,4.18-3.27s-1.44-2.69-3.33-3.54l-2.87-1.25c-1.89-.79-4.06-2.23-4.06-5.16s2.66-5.31,6.29-5.31c2.38,0,4.49,1.01,5.92,2.47l-1.37,1.65c-1.22-1.16-2.69-1.89-4.55-1.89-2.23,0-3.73,1.13-3.73,2.93,0,1.92,1.74,2.66,3.33,3.33l2.84,1.22c2.32,1.01,4.12,2.38,4.12,5.34,0,3.18-2.6,5.71-6.81,5.71-2.81,0-5.28-1.16-7.02-2.96Z"/>
        <path class="cls-2" d="M571.78,230.3h11.54v2.14h-9.01v6.29h7.6v2.17h-7.6v7.27h9.31v2.17h-11.85v-20.03Z"/>
        <path class="cls-2" d="M592.51,247.74l1.53-1.77c1.44,1.5,3.45,2.5,5.53,2.5,2.63,0,4.18-1.31,4.18-3.27s-1.44-2.69-3.33-3.54l-2.87-1.25c-1.89-.79-4.06-2.23-4.06-5.16s2.66-5.31,6.29-5.31c2.38,0,4.49,1.01,5.92,2.47l-1.37,1.65c-1.22-1.16-2.69-1.89-4.55-1.89-2.23,0-3.73,1.13-3.73,2.93,0,1.92,1.74,2.66,3.33,3.33l2.84,1.22c2.32,1.01,4.12,2.38,4.12,5.34,0,3.18-2.6,5.71-6.81,5.71-2.81,0-5.28-1.16-7.02-2.96Z"/>
        <path class="cls-2" d="M610.28,230.3h11.54v2.14h-9.01v6.29h7.6v2.17h-7.6v7.27h9.31v2.17h-11.85v-20.03Z"/>
        <path class="cls-2" d="M626.36,230.3h6.26c4.09,0,7.02,1.47,7.02,5.62,0,3.11-1.77,5.01-4.52,5.68l5.1,8.73h-2.87l-4.82-8.46h-3.63v8.46h-2.53v-20.03ZM632.26,239.8c3.11,0,4.85-1.28,4.85-3.88s-1.74-3.57-4.85-3.57h-3.36v7.45h3.36Z"/>
        <path class="cls-2" d="M641.14,230.3h2.72l3.21,10.81c.73,2.38,1.19,4.27,1.95,6.63h.12c.73-2.35,1.22-4.24,1.92-6.63l3.21-10.81h2.6l-6.35,20.03h-2.96l-6.41-20.03Z"/>
        <path class="cls-2" d="M659.61,230.3h2.53v20.03h-2.53v-20.03Z"/>
        <path class="cls-2" d="M672.46,256.01c2.56-.18,3.33-.64,3.33-1.53,0-.79-.61-1.22-2.35-1.47l1.13-2.35c-4.67-.31-8.09-4.09-8.09-10.35s3.79-10.38,8.89-10.38c2.44,0,4.34,1.16,5.5,2.47l-1.37,1.65c-1.07-1.13-2.38-1.89-4.09-1.89-3.79,0-6.29,3.11-6.29,8.09s2.41,8.21,6.2,8.21c1.92,0,3.36-.85,4.64-2.26l1.4,1.59c-1.37,1.59-3.02,2.6-5.13,2.84l-.7,1.65c1.4.34,2.23.92,2.23,2.17,0,1.77-1.8,2.63-5.04,2.78l-.24-1.22Z"/>
        <path class="cls-2" d="M683.02,240.23c0-6.41,3.51-10.29,8.55-10.29s8.58,3.91,8.58,10.29-3.54,10.47-8.58,10.47-8.55-4.03-8.55-10.47ZM697.49,240.23c0-4.98-2.35-8.06-5.92-8.06s-5.92,3.08-5.92,8.06,2.35,8.24,5.92,8.24,5.92-3.24,5.92-8.24Z"/>
        <path class="cls-2" d="M702.98,247.74l1.53-1.77c1.44,1.5,3.45,2.5,5.53,2.5,2.63,0,4.18-1.31,4.18-3.27s-1.44-2.69-3.33-3.54l-2.87-1.25c-1.89-.79-4.06-2.23-4.06-5.16s2.66-5.31,6.29-5.31c2.38,0,4.49,1.01,5.92,2.47l-1.37,1.65c-1.22-1.16-2.69-1.89-4.55-1.89-2.23,0-3.72,1.13-3.72,2.93,0,1.92,1.74,2.66,3.33,3.33l2.84,1.22c2.32,1.01,4.12,2.38,4.12,5.34,0,3.18-2.6,5.71-6.81,5.71-2.81,0-5.28-1.16-7.02-2.96Z"/>
      </g>
      <path class="cls-2" d="M370.27,75.62l16.94,6.06v127.86h-16.94V75.62Z"/>
      <path class="cls-2" d="M423.95,75.62l16.94,6.07v113.35h58.59v14.49h-75.53V75.62Z"/>
      <path class="cls-2" d="M591.87,187.51c-.74,2.24-4.37,13.04-14.24,18.11-5.56,2.85-11.97,3.34-16.76,3.71-1.93.15-3.4.17-4.07.17-9.1.04-22.81.07-41.66,0,.02-4.83.04-9.67.07-14.5,4.08,0,44.5.08,46.97-.11.64-.05,1.33-.15,1.33-.15,1.6-.22,2.63-.53,3.03-.66.39-.13.76-.26,1.13-.42,1.06-.48,2.03-1.09,2.97-1.9,2.3-1.98,3.94-4.73,4.93-7.82.01,0,.01-.02.01-.02,1.31-4.13,1.46-8.85.41-13.1-.35-1.48-.87-2.91-1.51-4.23-2.85-5.78-8.33-9.39-20.26-14.62-.05-.02-19.03-8.3-19.03-8.3-11.1-4.65-23.64-12.63-26.39-27.89,0-.04-.01-.07-.01-.1-.32-1.8-.5-3.7-.52-5.71,0-.25-.01-.5-.01-.76.01-.81.04-1.63.11-2.42,0-.17.01-.33.03-.5.66-5.23.99-6.81.99-6.81,1.52-7.32,6.11-12.89,6.11-12.89,6.69-8.12,16.51-9.79,20.03-10.38,1.85-.31,5.26-.33,12.06-.49,5.1-.12,10.05-.13,14.82-.05h.05c7.86.02,15.73.03,23.59.05.01,4.83.02,9.66.04,14.49-4.6.03-9.23.05-13.89.05-4.03,0-8.04-.01-12.03-.03h-.05c-2.08-.04-5.09-.08-8.73-.05-6.82.05-10.27.08-12.09.59-1.34.38-9.06,2.66-12.4,9.96-2.64,5.76-1.15,11.59-.59,13.75.1.4.58,2.29,1.49,4.15,2.84,5.79,8.33,9.4,20.26,14.62.04.02,19.03,8.3,19.03,8.3,11.1,4.66,23.63,12.65,26.38,27.9,0,.02,0,.06.01.1.19,1.95.94,10.2-1.61,17.98Z"/>
    </g>
  </g>
</svg>