<svg width="190" height="61" viewBox="0 0 190 61" fill="none" xmlns="http://www.w3.org/2000/svg">
<g clip-path="url(#clip0_186_121)">
<path d="M82.5 54.837V49.8426H84.2123C84.6207 49.8426 84.9721 49.909 85.2659 50.0428C85.5596 50.1765 85.7837 50.3663 85.9391 50.6122C86.0944 50.8581 86.1717 51.1548 86.1717 51.5034C86.1717 51.8519 86.0944 52.1504 85.9391 52.398C85.7837 52.6465 85.5596 52.8372 85.2659 52.9709C84.9721 53.1046 84.6215 53.1711 84.2123 53.1711H82.6307L82.7343 53.058V54.8361H82.5V54.837ZM82.7335 53.0408L82.629 52.9347H84.2038C84.7523 52.9347 85.1708 52.8096 85.462 52.5594C85.7523 52.3092 85.8975 51.9572 85.8975 51.5042C85.8975 51.0513 85.7523 50.7002 85.462 50.4526C85.1716 50.205 84.7523 50.0807 84.2038 50.0807H82.629L82.7335 49.9677V53.0408Z" fill="#D0B97D"/>
<path d="M87.8042 54.837V49.8426H89.5165C89.9249 49.8426 90.2763 49.909 90.5701 50.0428C90.8638 50.1765 91.0879 50.3663 91.2433 50.6122C91.3986 50.8581 91.4759 51.1548 91.4759 51.5034C91.4759 51.8519 91.3986 52.1504 91.2433 52.398C91.0879 52.6465 90.8638 52.8372 90.5701 52.9709C90.2763 53.1046 89.9257 53.1711 89.5165 53.1711H87.9349L88.0385 53.058V54.8361H87.8042V54.837ZM88.0385 53.0408L87.9341 52.9347H89.5089C90.0573 52.9347 90.4758 52.8096 90.767 52.5594C91.0574 52.3092 91.2025 51.9572 91.2025 51.5042C91.2025 51.0513 91.0574 50.7002 90.767 50.4526C90.4767 50.205 90.0573 50.0807 89.5089 50.0807H87.9341L88.0385 49.9677V53.0408ZM91.256 54.9164L89.9699 53.0934H90.2458L91.5387 54.9164H91.256Z" fill="#D0B97D"/>
<path d="M95.2341 54.9069C94.8733 54.9069 94.538 54.8439 94.2281 54.7171C93.9183 54.5911 93.6492 54.4134 93.4191 54.1848C93.1899 53.9562 93.0107 53.6878 92.8843 53.3807C92.7578 53.0736 92.6941 52.7388 92.6941 52.3765C92.6941 52.0141 92.7569 51.6794 92.8843 51.3723C93.0107 51.0651 93.189 50.7968 93.4191 50.5682C93.6483 50.3396 93.9183 50.1618 94.2281 50.0359C94.538 49.9099 94.8725 49.8461 95.2341 49.8461C95.5958 49.8461 95.9371 49.909 96.2469 50.0359C96.5559 50.1618 96.8242 50.3396 97.0526 50.5682C97.2801 50.7968 97.4584 51.0651 97.5874 51.3723C97.7165 51.6794 97.781 52.0141 97.781 52.3765C97.781 52.7388 97.7165 53.0736 97.5874 53.3807C97.4584 53.6878 97.2801 53.9562 97.0526 54.1848C96.8251 54.4134 96.5568 54.5911 96.2469 54.7171C95.9371 54.8439 95.6 54.9069 95.2341 54.9069ZM95.2341 54.686C95.5618 54.686 95.8666 54.6291 96.1485 54.5143C96.4295 54.3996 96.6748 54.2383 96.8836 54.0286C97.0925 53.819 97.2538 53.5748 97.3692 53.2962C97.4839 53.0175 97.5416 52.7112 97.5416 52.3782C97.5416 52.0452 97.4839 51.7389 97.3692 51.4594C97.2546 51.1807 97.0925 50.9366 96.8836 50.7269C96.6748 50.5173 96.4303 50.3551 96.1485 50.2412C95.8666 50.1265 95.5618 50.0695 95.2341 50.0695C94.9065 50.0695 94.6076 50.1265 94.3266 50.2412C94.0456 50.3551 93.8003 50.5173 93.5914 50.7269C93.3826 50.9366 93.2213 51.1807 93.1058 51.4594C92.9912 51.7381 92.9335 52.0443 92.9335 52.3782C92.9335 52.7121 92.9904 53.0175 93.1058 53.2962C93.2204 53.5748 93.3826 53.819 93.5914 54.0286C93.8003 54.2383 94.0448 54.4005 94.3266 54.5143C94.6076 54.6282 94.9107 54.686 95.2341 54.686Z" fill="#D0B97D"/>
<path d="M99.6997 54.9069C99.4416 54.9069 99.2013 54.8439 98.9789 54.7171C98.7565 54.5911 98.5765 54.4186 98.4407 54.1994L98.5884 54.0424C98.7242 54.2469 98.8881 54.4056 99.0808 54.5178C99.2726 54.63 99.4815 54.686 99.7064 54.686C100.386 54.686 100.675 53.4497 100.675 53.4497V50.0816H98.8813V49.8435H100.988V53.4566C100.965 53.938 100.86 54.3004 100.649 54.5428C100.438 54.7861 100.122 54.9069 99.6997 54.9069Z" fill="#D0B97D"/>
<path d="M103.328 54.6791H106.371V54.8379H103.094V49.8435H106.292V50.0816H103.328V54.6791ZM103.25 52.2212H105.98V52.4593H103.25V52.2212Z" fill="#D0B97D"/>
<path d="M109.022 54.837V50.0807H107.228V49.8426H111.05V50.0807H109.256V54.837H109.022Z" fill="#D0B97D"/>
<path d="M114.35 54.9069C113.989 54.9069 113.654 54.8439 113.344 54.7171C113.034 54.5911 112.765 54.4134 112.535 54.1848C112.306 53.9562 112.126 53.6878 112 53.3807C111.873 53.0736 111.81 52.7388 111.81 52.3765C111.81 52.0141 111.873 51.6794 112 51.3723C112.126 51.0651 112.305 50.7968 112.535 50.5682C112.764 50.3396 113.034 50.1618 113.344 50.0359C113.654 49.9099 113.988 49.8461 114.35 49.8461C114.712 49.8461 115.053 49.909 115.363 50.0359C115.672 50.1618 115.94 50.3396 116.168 50.5682C116.396 50.7968 116.574 51.0651 116.703 51.3723C116.832 51.6794 116.897 52.0141 116.897 52.3765C116.897 52.7388 116.832 53.0736 116.703 53.3807C116.574 53.6878 116.396 53.9562 116.168 54.1848C115.941 54.4134 115.673 54.5911 115.363 54.7171C115.053 54.8439 114.716 54.9069 114.35 54.9069ZM114.35 54.686C114.678 54.686 114.982 54.6291 115.264 54.5143C115.545 54.3996 115.791 54.2383 115.999 54.0286C116.208 53.819 116.37 53.5748 116.485 53.2962C116.6 53.0175 116.657 52.7112 116.657 52.3782C116.657 52.0452 116.6 51.7389 116.485 51.4594C116.37 51.1807 116.208 50.9366 115.999 50.7269C115.791 50.5173 115.546 50.3551 115.264 50.2412C114.982 50.1265 114.678 50.0695 114.35 50.0695C114.022 50.0695 113.723 50.1265 113.442 50.2412C113.161 50.3551 112.916 50.5173 112.707 50.7269C112.498 50.9366 112.337 51.1807 112.222 51.4594C112.107 51.7381 112.049 52.0443 112.049 52.3782C112.049 52.7121 112.106 53.0175 112.222 53.2962C112.336 53.5748 112.498 53.819 112.707 54.0286C112.916 54.2383 113.16 54.4005 113.442 54.5143C113.723 54.6282 114.026 54.686 114.35 54.686Z" fill="#D0B97D"/>
<path d="M119.793 54.9069C119.432 54.9069 119.091 54.8413 118.77 54.7102C118.449 54.5791 118.203 54.4134 118.034 54.2133L118.161 54.0416C118.321 54.2227 118.546 54.3763 118.84 54.5023C119.133 54.6282 119.448 54.6921 119.786 54.6921C120.124 54.6921 120.41 54.6446 120.63 54.5489C120.85 54.454 121.013 54.3263 121.119 54.1667C121.224 54.0071 121.277 53.8293 121.277 53.6344C121.277 53.4057 121.221 53.222 121.108 53.0839C120.996 52.9459 120.846 52.8363 120.661 52.7552C120.476 52.6741 120.275 52.6077 120.057 52.5551C119.838 52.5024 119.618 52.4464 119.395 52.3868C119.173 52.3273 118.968 52.2514 118.783 52.1582C118.598 52.065 118.45 51.9365 118.34 51.7717C118.23 51.6069 118.175 51.3938 118.175 51.1324C118.175 50.9081 118.233 50.6993 118.35 50.5035C118.467 50.3076 118.65 50.1497 118.899 50.0281C119.147 49.9065 119.466 49.8461 119.855 49.8461C120.123 49.8461 120.387 49.8883 120.647 49.9712C120.906 50.0548 121.128 50.1653 121.311 50.3033L121.206 50.4966C121.009 50.349 120.791 50.2395 120.552 50.1679C120.313 50.0963 120.083 50.0609 119.862 50.0609C119.535 50.0609 119.261 50.1092 119.043 50.2076C118.825 50.305 118.664 50.4353 118.562 50.5966C118.458 50.7588 118.407 50.9374 118.407 51.1324C118.407 51.3662 118.463 51.5517 118.576 51.6897C118.688 51.8278 118.838 51.9373 119.023 52.0184C119.208 52.0995 119.411 52.166 119.63 52.2186C119.85 52.2712 120.071 52.3273 120.292 52.3868C120.513 52.4464 120.715 52.524 120.9 52.6189C121.086 52.7147 121.233 52.8415 121.344 53.0011C121.454 53.1607 121.509 53.3695 121.509 53.6266C121.509 53.8509 121.449 54.0605 121.33 54.2555C121.21 54.4505 121.023 54.6084 120.767 54.7274C120.512 54.8465 120.187 54.906 119.793 54.906L119.793 54.9069Z" fill="#D0B97D"/>
<path d="M125.248 54.837V49.8426H127.144C127.668 49.8426 128.124 49.9505 128.513 50.167C128.902 50.3835 129.205 50.6786 129.422 51.0513C129.639 51.4249 129.748 51.8537 129.748 52.3394C129.748 52.8251 129.639 53.2539 129.422 53.6274C129.204 54.001 128.901 54.2961 128.513 54.5118C128.124 54.7283 127.668 54.837 127.144 54.837H125.248ZM125.481 54.6791H127.141C127.627 54.6791 128.052 54.5808 128.414 54.3841C128.775 54.1874 129.054 53.9156 129.251 53.5696C129.447 53.2237 129.545 52.8277 129.545 52.3808C129.545 51.9339 129.447 51.5379 129.251 51.1919C129.054 50.846 128.776 50.5742 128.414 50.3775C128.052 50.1808 127.627 50.0816 127.141 50.0816H125.481V54.6791Z" fill="#D0B97D"/>
<path d="M131.722 54.6791H134.765V54.8379H131.489V49.8435H134.687V50.0816H131.722V54.6791ZM131.645 52.2212H134.375V52.4593H131.645V52.2212Z" fill="#D0B97D"/>
<path d="M138.899 54.6791H141.942V54.8379H138.666V49.8435H141.864V50.0816H138.899V54.6791ZM138.821 52.2212H141.551V52.4593H138.821V52.2212Z" fill="#D0B97D"/>
<path d="M143.657 54.837V49.8426H143.857L147.522 54.5989H147.401V49.8426H147.635V54.837H147.315L143.774 50.1601H143.892V54.837H143.657Z" fill="#D0B97D"/>
<path d="M151.814 54.9069C151.448 54.9069 151.109 54.8439 150.798 54.7171C150.485 54.5911 150.214 54.4134 149.982 54.1848C149.75 53.9562 149.57 53.6878 149.444 53.3807C149.317 53.0736 149.253 52.7388 149.253 52.3765C149.253 52.0141 149.316 51.6794 149.444 51.3723C149.57 51.0651 149.749 50.7968 149.982 50.5682C150.214 50.3396 150.486 50.1618 150.798 50.0359C151.109 49.9099 151.448 49.8461 151.814 49.8461C152.156 49.8461 152.477 49.9013 152.777 50.0109C153.077 50.1204 153.333 50.2852 153.544 50.5043L153.404 50.6691C153.179 50.45 152.934 50.2947 152.672 50.2041C152.41 50.1135 152.126 50.0687 151.821 50.0687C151.489 50.0687 151.181 50.1273 150.897 50.2438C150.613 50.3603 150.366 50.5242 150.155 50.733C149.944 50.9426 149.781 51.1868 149.666 51.4654C149.551 51.7441 149.494 52.0478 149.494 52.3765C149.494 52.7052 149.551 53.0089 149.666 53.2875C149.781 53.5662 149.944 53.8104 150.155 54.02C150.366 54.2296 150.613 54.3927 150.897 54.5092C151.181 54.6256 151.489 54.6843 151.821 54.6843C152.121 54.6843 152.406 54.6377 152.676 54.5445C152.945 54.4514 153.186 54.2978 153.397 54.0838L153.537 54.2624C153.322 54.4764 153.063 54.6377 152.764 54.7447C152.464 54.8517 152.147 54.9052 151.815 54.9052L151.814 54.9069Z" fill="#D0B97D"/>
<path d="M153.33 54.2167V52.3799H153.564V54.2314L153.33 54.2167Z" fill="#D0B97D"/>
<path d="M155.827 54.6791H158.87V54.8379H155.594V49.8435H158.791V50.0816H155.827V54.6791ZM155.749 52.2212H158.479V52.4593H155.749V52.2212Z" fill="#D0B97D"/>
<path d="M160.585 54.837V49.8426H160.78L164.371 54.5989H164.252V49.8426H164.564V54.837H164.244L160.703 50.1601H160.82V54.837H160.586H160.585Z" fill="#D0B97D"/>
<path d="M166.904 54.837H166.67V49.8426H166.904V54.837ZM170.414 52.4593H166.903V52.2212H170.414V52.4593ZM170.414 49.8426H170.648V54.837H170.414V49.8426Z" fill="#D0B97D"/>
<path d="M171.88 54.9164L174.191 49.8426H174.426L176.737 54.9164H176.442L174.256 50.0807H174.361L172.175 54.9164H171.88H171.88ZM172.701 53.41L172.793 53.1719H175.803L175.895 53.41H172.702H172.701Z" fill="#D0B97D"/>
<path d="M177.981 54.837V49.8426H179.693C180.102 49.8426 180.453 49.909 180.747 50.0428C181.041 50.1765 181.265 50.3663 181.42 50.6122C181.575 50.8581 181.653 51.1548 181.653 51.5034C181.653 51.8519 181.575 52.1504 181.42 52.398C181.265 52.6465 181.041 52.8372 180.747 52.9709C180.453 53.1046 180.102 53.1711 179.693 53.1711H178.112L178.215 53.058V54.8361H177.981V54.837ZM178.214 53.0408L178.11 52.9347H179.685C180.233 52.9347 180.652 52.8096 180.943 52.5594C181.233 52.3092 181.378 51.9572 181.378 51.5042C181.378 51.0513 181.233 50.7002 180.943 50.4526C180.653 50.205 180.233 50.0807 179.685 50.0807H178.11L178.214 49.9677V53.0408ZM181.474 54.9164L180.188 53.0934H180.464L181.757 54.9164H181.474Z" fill="#D0B97D"/>
<path d="M183.441 54.837V49.8426H183.676V54.837H183.441Z" fill="#D0B97D"/>
<path d="M184.92 54.9164L187.23 49.8426H187.466L189.776 54.9164H189.481L187.295 50.0807H187.4L185.214 54.9164H184.919H184.92ZM185.74 53.41L185.832 53.1719H188.843L188.934 53.41H185.741H185.74Z" fill="#D0B97D"/>
<path d="M159.415 43.58V9.25418H160.233L185.452 42.4705H184.923V9.25418H185.859V43.58H185.077L159.801 10.3637H160.351V43.58H159.415Z" fill="#D0B97D"/>
<path d="M102.703 26.6159V25.6643H83.7479V9.25418H82.8115V43.58H83.7479V26.6159H102.703Z" fill="#D0B97D"/>
<path d="M108.398 9.25418V21.9546V34.6558V43.58H109.334V9.25418H108.398Z" fill="#D0B97D"/>
<path d="M123.064 25.1933V9.25418H122.127V43.58H123.064V38.1516V25.1933Z" fill="#D0B97D"/>
<path d="M148.393 43.58L132.219 25.0009L147.282 9.25418H145.98L126.183 29.9194V31.2411L131.52 25.6669L147.09 43.58H148.393Z" fill="#D0B97D"/>
<path d="M28.1911 5.68676V28.8349H20.2678H13.7352H2.60464V5.68676H0.0297852V55.3132H2.60464V31.2929H13.7369H20.2661H28.1911V55.3132H30.687V5.68676H28.1911Z" fill="url(#paint0_linear_186_121)"/>
<path d="M70.6427 -0.258375H69.7063V61.2584H70.6427V-0.258375Z" fill="#BEA46A"/>
<path d="M60.2091 7.83067V55.3132H56.6801L35.0693 30.299L23.8572 42.0823V55.3132H21.3613V5.68676H23.8572V38.5399L55.1401 5.68676H58.5596L36.8512 28.5191L57.7124 52.631V10.4568L60.2091 7.83067Z" fill="url(#paint1_linear_186_121)"/>
</g>
<defs>
<linearGradient id="paint0_linear_186_121" x1="15.1461" y1="53.0399" x2="15.5626" y2="10.2413" gradientUnits="userSpaceOnUse">
<stop offset="0.36" stop-color="#E8D696"/>
<stop offset="1" stop-color="#B69961"/>
</linearGradient>
<linearGradient id="paint1_linear_186_121" x1="23.5227" y1="49.7468" x2="61.5272" y2="8.71834" gradientUnits="userSpaceOnUse">
<stop stop-color="#E8D696"/>
<stop offset="1" stop-color="#B69961"/>
</linearGradient>
<clipPath id="clip0_186_121">
<rect width="190" height="61" fill="white"/>
</clipPath>
</defs>
</svg>
