<svg width="181" height="72" viewBox="0 0 181 72" fill="none" xmlns="http://www.w3.org/2000/svg">
<g clip-path="url(#clip0_85_513)">
<path fill-rule="evenodd" clip-rule="evenodd" d="M46.6544 23.3324V24.329C46.6544 30.0055 46.6544 35.6872 46.6544 41.3637C46.6544 42.3185 46.7911 42.2455 45.763 42.2455C44.1778 42.2455 42.5926 42.2455 41.0024 42.2455C40.1971 42.2455 40.2832 42.282 40.2832 41.515C40.2832 35.9168 40.2832 30.3185 40.2832 24.7203C40.2832 22.1742 40.2832 19.6333 40.2832 17.0872C40.2832 16.4768 40.2933 16.4663 40.8656 16.4663C43.8841 16.4663 46.8975 16.4663 49.9159 16.4663C50.4882 16.4663 50.4933 16.4716 50.6553 17.1081C51.8202 21.7672 52.985 26.4263 54.1499 31.0855C54.2157 31.3411 54.2917 31.5916 54.4082 32.009C54.8792 30.1098 55.3147 28.3776 55.7452 26.6403C56.5353 23.4576 57.3101 20.2646 58.1103 17.0872C58.2825 16.4037 58.1205 16.4663 58.8649 16.4663C61.853 16.4663 64.8462 16.4663 67.8342 16.4663C68.4065 16.4663 68.4166 16.4768 68.4166 17.0872C68.4166 25.2577 68.4166 33.4281 68.4166 41.5985C68.4166 42.2403 68.4065 42.2455 67.7785 42.2455C66.1427 42.2455 64.5018 42.2455 62.8659 42.2455C62.0252 42.2455 62.1062 42.3446 62.1062 41.4889C62.1062 37.6333 62.1062 33.7724 62.1062 29.9168V23.2072C61.8631 23.4055 61.8631 23.6507 61.8074 23.875C60.3539 29.729 58.9055 35.5829 57.4519 41.4368C57.4216 41.5672 57.3709 41.6924 57.3557 41.8229C57.3101 42.1463 57.1379 42.2507 56.8239 42.2507C55.2134 42.2403 53.5978 42.2298 51.9873 42.2507C51.5872 42.2559 51.4454 42.0994 51.3593 41.7237C50.9643 40.0646 50.5439 38.4107 50.1337 36.7516C49.0803 32.4785 48.0269 28.2003 46.9684 23.9272C46.9279 23.7603 46.9177 23.5672 46.6594 23.322L46.6544 23.3324Z" fill="#A3A3A3"/>
<path fill-rule="evenodd" clip-rule="evenodd" d="M13.3046 42.1255V41.3637C13.3046 33.3551 13.3046 25.3516 13.3046 17.3429C13.3046 16.362 13.1779 16.4768 14.1149 16.4768C18.5615 16.4768 23.0031 16.4768 27.4498 16.4924C28.5184 16.4924 29.5769 16.6177 30.6252 16.8211C33.6842 17.4211 35.5632 19.5811 35.8822 22.8264C36.2418 26.5307 34.3173 29.5203 30.8633 30.6107C30.6151 30.689 30.367 30.7568 30.0428 30.8507C30.134 30.9133 30.1897 30.9759 30.2555 30.9968C32.0889 31.5655 33.1778 33.0211 34.0438 34.6124C35.3656 37.0333 36.5558 39.5324 37.8017 41.995C37.8219 42.0368 37.8219 42.0942 37.8321 42.1464C37.6903 42.3185 37.4927 42.2507 37.3206 42.2507C34.7984 42.2507 32.2763 42.2403 29.7592 42.2664C29.2933 42.2664 29.0755 42.0994 28.8679 41.6977C27.5967 39.2455 26.3001 36.8038 25.0188 34.3568C24.7453 33.8403 24.4617 33.329 24.1021 32.8698C23.3931 31.9724 22.4207 31.7846 21.3774 31.7794C21.185 31.7794 21.0887 31.8681 21.0837 32.0611C21.0837 32.249 21.0837 32.4368 21.0837 32.6246C21.0837 35.6246 21.0837 38.6246 21.0837 41.6194C21.0837 42.2403 21.0735 42.2507 20.5013 42.2507C18.2678 42.2507 16.0293 42.2507 13.7958 42.2507C13.6388 42.2507 13.4818 42.2664 13.3096 42.1255H13.3046ZM21.0786 24.282C21.0786 24.7098 21.0634 25.1377 21.0786 25.5655C21.0989 25.9881 20.8963 26.515 21.1647 26.802C21.4382 27.0942 21.9548 26.8907 22.3599 26.9011C23.6818 26.9272 25.0036 26.9377 26.3052 26.5881C27.4042 26.2907 28.1031 25.4559 28.1183 24.3029C28.1386 23.0194 27.5612 22.2264 26.371 21.9133C26.0722 21.8351 25.7582 21.7672 25.4544 21.7568C24.1325 21.7255 22.8056 21.7359 21.4838 21.7046C21.1039 21.6942 21.0685 21.8872 21.0735 22.1951C21.0887 22.889 21.0735 23.5881 21.0735 24.282H21.0786Z" fill="#A3A3A3"/>
<path fill-rule="evenodd" clip-rule="evenodd" d="M144.901 29.3113C144.886 30.9496 144.775 32.5774 144.339 34.1583C143.205 38.3165 140.607 41.0296 136.565 42.1409C133.339 43.0331 130.062 42.9339 126.856 41.9583C123.276 40.8731 120.931 38.3426 119.776 34.7531C118.606 31.127 118.637 27.4226 119.842 23.7965C121.012 20.2696 123.392 17.9165 126.831 16.7948C130.27 15.6731 133.764 15.6939 137.188 16.8157C141.194 18.1305 143.574 21.047 144.516 25.2365C144.82 26.5722 144.901 27.9339 144.901 29.3009V29.3113ZM137.122 29.3061C137.122 28.8 137.158 28.2887 137.112 27.7826C137.061 27.2244 136.97 26.6661 136.849 26.1235C136.297 23.6609 134.534 22.1478 132.164 22.0852C129.576 22.0226 127.814 23.3009 127.15 25.8522C126.522 28.2783 126.527 30.7305 127.201 33.1513C127.763 35.1705 129.1 36.3757 131.131 36.6626C133.349 36.9757 136.013 36.2296 136.773 32.8852C137.041 31.7061 137.158 30.5166 137.122 29.3061Z" fill="#A3A3A3"/>
<path fill-rule="evenodd" clip-rule="evenodd" d="M51.9014 63.1303C52.5344 63.0781 53.1523 63.0207 53.7651 62.979C55.4263 62.8694 57.0874 62.7807 58.7435 62.6503C59.169 62.619 59.2804 62.7755 59.331 63.1668C59.3766 63.532 59.488 63.8972 59.6096 64.2468C60.1819 65.9059 61.3416 66.7981 63.0281 66.9546C63.8587 67.0329 64.6893 67.0224 65.4692 66.6364C66.3758 66.1929 66.9937 65.5094 67.0291 64.4294C67.0595 63.3703 66.4872 62.6711 65.6262 62.2016C64.6336 61.659 63.5447 61.4033 62.4558 61.1424C60.7339 60.7355 59.0322 60.2607 57.4166 59.5094C56.7025 59.1807 56.029 58.7842 55.4009 58.3042C51.9014 55.659 52.0938 50.6398 54.9907 47.9372C56.2163 46.7946 57.6749 46.1216 59.2854 45.8137C62.2836 45.2451 65.2869 45.2033 68.2446 46.0485C71.3441 46.9355 73.0761 49.1111 73.6535 52.3251C73.6788 52.4555 73.6687 52.5964 73.6991 52.7216C73.7751 53.045 73.6332 53.1494 73.3395 53.165C72.433 53.212 71.5213 53.2694 70.6148 53.3268C69.3942 53.3998 68.1737 53.4677 66.9582 53.5616C66.6138 53.5877 66.4214 53.5094 66.3606 53.1337C66.3251 52.899 66.2441 52.6694 66.1631 52.445C65.7174 51.2398 64.8767 50.5407 63.6359 50.332C62.9572 50.2172 62.2887 50.212 61.6202 50.3633C61.1239 50.4729 60.6984 50.7129 60.3692 51.125C59.7159 51.9442 59.8425 52.8885 60.7035 53.4729C61.1846 53.8016 61.7417 53.9581 62.2988 54.0937C64.117 54.5372 65.9453 54.9233 67.7229 55.5129C68.6599 55.8259 69.5867 56.1703 70.473 56.6242C75.2033 59.0398 75.3754 64.2937 73.3648 67.6277C72.0886 69.7459 70.1944 70.972 67.8951 71.5825C65.6516 72.1772 63.3675 72.1825 61.0783 71.9894C60.0907 71.9059 59.1234 71.7337 58.1611 71.4885C55.0616 70.6903 53.2435 68.5564 52.2913 65.5303C52.0533 64.7685 51.8963 63.9859 51.8811 63.125L51.9014 63.1303Z" fill="#A3A3A3"/>
<path fill-rule="evenodd" clip-rule="evenodd" d="M147.722 33.7045C150.087 33.548 152.392 33.4019 154.696 33.2402C155.02 33.2193 155.086 33.3654 155.126 33.6471C155.207 34.148 155.324 34.6437 155.527 35.1132C156.144 36.5689 157.228 37.3671 158.748 37.5393C159.472 37.6228 160.201 37.6228 160.905 37.3828C161.123 37.3097 161.346 37.2211 161.548 37.1063C162.338 36.6367 162.87 35.9532 162.88 34.988C162.89 34.0176 162.364 33.3184 161.569 32.8645C160.54 32.275 159.396 32.0089 158.261 31.7376C156.565 31.3358 154.888 30.8715 153.298 30.1306C152.564 29.7863 151.865 29.3845 151.212 28.8889C147.849 26.348 147.991 21.5689 150.462 18.9132C151.475 17.8228 152.706 17.0663 154.103 16.6854C157.35 15.8037 160.627 15.7567 163.888 16.6124C167.246 17.4889 169.029 19.8211 169.55 23.2802C169.606 23.6402 169.525 23.7602 169.18 23.7758C168.249 23.8176 167.312 23.8854 166.38 23.9428C165.185 24.0158 163.994 24.0784 162.799 24.1671C162.465 24.1932 162.267 24.1254 162.197 23.7497C161.736 21.2819 159.791 20.6402 157.78 20.9115C157.304 20.9741 156.869 21.1254 156.494 21.4384C155.481 22.2784 155.592 23.5619 156.737 24.1932C157.34 24.5219 157.998 24.6784 158.656 24.8297C160.758 25.3097 162.855 25.8054 164.876 26.5776C165.802 26.9324 166.689 27.3758 167.494 27.9706C169.783 29.6715 170.68 32.0245 170.335 34.8367C169.884 38.5515 167.423 41.2228 163.741 42.1828C161.467 42.7724 159.163 42.7724 156.848 42.5845C155.992 42.5167 155.147 42.3654 154.311 42.1723C151.044 41.4263 149.095 39.2611 148.112 36.0628C147.884 35.3271 147.742 34.5654 147.717 33.6993L147.722 33.7045Z" fill="#A3A3A3"/>
<path fill-rule="evenodd" clip-rule="evenodd" d="M180.373 71.5824C180.211 71.7076 180.024 71.6607 179.847 71.6607C177.557 71.6607 175.273 71.6607 172.984 71.6607C172.366 71.6607 172.361 71.6555 172.184 71.0555C171.865 69.9807 171.541 68.9111 171.242 67.8311C171.161 67.5337 171.044 67.3981 170.72 67.3981C168.072 67.4137 165.418 67.4085 162.769 67.3981C162.45 67.3981 162.328 67.5181 162.247 67.8259C161.949 68.932 161.604 70.0276 161.3 71.1285C161.204 71.4728 161.077 71.6659 160.672 71.6607C158.282 71.6398 155.891 71.645 153.501 71.6398C153.45 71.6398 153.405 71.6085 153.339 71.5876C153.227 71.3685 153.39 71.1911 153.455 71.0085C156.428 62.8537 159.406 54.7042 162.384 46.5494C162.632 45.8711 162.637 45.8659 163.296 45.8659C165.712 45.8659 168.132 45.8763 170.548 45.8555C170.979 45.8555 171.176 45.9755 171.328 46.4033C174.306 54.6415 177.299 62.8694 180.292 71.1024C180.348 71.2537 180.429 71.3946 180.378 71.5615L180.373 71.5824ZM166.836 52.8311C166.79 52.8311 166.75 52.8363 166.704 52.8415C165.828 55.805 164.952 58.7685 164.071 61.7424H169.48C168.583 58.7268 167.707 55.7789 166.831 52.8311H166.836Z" fill="#A3A3A3"/>
<path fill-rule="evenodd" clip-rule="evenodd" d="M69.0651 44.3846C69.1259 44.0298 69.3336 43.8576 69.4855 43.6541C70.7972 41.922 72.0988 40.1846 73.4307 38.468C73.7701 38.0298 73.9271 37.5863 73.9271 37.0124C73.9119 27.7202 73.917 18.4228 73.917 9.13065C73.917 8.43848 74.2394 8.0924 74.8843 8.0924H88.3762C88.4521 8.0924 88.5332 8.0924 88.6091 8.0924C89.3536 8.09761 89.3435 7.99327 89.3384 8.8124C89.3384 9.37066 89.3384 9.93413 89.3384 10.6333C89.9715 10.1272 90.2906 9.52196 90.7059 9.00544C91.1515 8.44718 91.577 7.87326 92.0075 7.30457C92.4227 6.76196 92.833 6.21935 93.309 5.59326C94.17 6.60544 95.036 7.52891 95.7957 8.53586C104.598 20.2437 113.385 31.962 122.172 43.6802C122.309 43.8628 122.491 44.0246 122.557 44.3898C121.858 44.3898 121.194 44.3898 120.531 44.3898C119.984 44.3898 119.386 44.5098 118.91 44.3167C118.404 44.108 118.156 43.4663 117.806 43.002C109.921 32.4941 102.035 21.9863 94.1497 11.4785C93.9624 11.228 93.7648 10.9828 93.5774 10.7428C93.3394 10.8367 93.2381 11.035 93.1115 11.202C91.972 12.6993 90.8426 14.202 89.693 15.6889C89.4347 16.0228 89.3232 16.362 89.3283 16.7898C89.3435 18.7985 89.3384 20.8072 89.3334 22.8159C89.3334 23.4576 89.3232 23.4628 88.6851 23.4681C88.1128 23.4681 87.5405 23.4681 86.9682 23.4681C86.0212 23.4681 86.1579 23.468 86.1579 22.6593C86.1579 20.035 86.1579 17.4107 86.1579 14.7863C86.1579 13.4193 86.1478 12.0524 86.163 10.6906C86.168 10.2889 86.0718 10.122 85.6515 10.1272C83.0534 10.1428 80.4502 10.1428 77.8521 10.1272C77.4571 10.1272 77.3507 10.2837 77.3861 10.6489C77.4013 10.8367 77.3861 11.0246 77.3861 11.2124C77.3861 20.0767 77.3811 28.9463 77.3963 37.8107C77.3963 38.3846 77.2443 38.8228 76.9 39.2611C75.6946 40.8054 74.5146 42.3707 73.3396 43.9411C73.0965 44.2698 72.8483 44.4263 72.433 44.4106C71.3239 44.3793 70.2148 44.4002 69.0601 44.4002L69.0651 44.3846Z" fill="#A3A3A3"/>
<path fill-rule="evenodd" clip-rule="evenodd" d="M139.923 64.1376C141.66 58.3411 143.397 52.5498 145.134 46.7585C145.31 46.1776 145.691 45.8872 146.279 45.8872H153.167C153.242 46.1533 153.101 46.3619 153.025 46.5654C150.092 54.7098 147.155 62.8489 144.217 70.9932C143.939 71.7706 144.05 71.6611 143.296 71.6663C140.931 71.6715 138.565 71.6559 136.2 71.6767C135.75 71.6767 135.522 71.5619 135.349 71.0924C132.361 62.8854 129.348 54.6889 126.345 46.4872C126.279 46.315 126.193 46.148 126.218 45.9393C126.461 45.8245 126.725 45.8872 126.973 45.8872C129.054 45.8819 131.131 45.8872 133.212 45.8872C133.891 45.8872 134.328 46.2106 134.524 46.8576C136.19 52.3411 137.856 57.8245 139.523 63.308C139.604 63.5845 139.705 63.8506 139.791 64.1219C139.837 64.1272 139.877 64.1324 139.918 64.1428L139.923 64.1376Z" fill="#A3A3A3"/>
<path fill-rule="evenodd" clip-rule="evenodd" d="M7.70319 29.3215V41.2954C7.70319 41.4311 7.70319 41.5615 7.70319 41.6972C7.68799 42.2398 7.68799 42.245 7.12583 42.2502C6.42186 42.2554 5.72296 42.2502 5.01899 42.2502C3.59079 42.2502 2.15753 42.2502 0.72933 42.2502C-0.207608 42.2502 -0.0759329 42.2659 -0.0809975 41.4415C-0.0809975 38.1494 -0.0809975 34.852 -0.0809975 31.5598V17.4989C-0.0809975 17.3372 -0.0658039 17.1754 -0.0809975 17.0189C-0.126578 16.612 0.010169 16.4502 0.430525 16.4659C1.26111 16.4972 2.09169 16.4763 2.92733 16.4763C4.27956 16.4763 5.63179 16.4763 6.98402 16.4763C7.75889 16.4763 7.70319 16.372 7.70319 17.1911C7.70319 20.8589 7.70319 24.532 7.70319 28.1998V29.3267V29.3215Z" fill="#A3A3A3"/>
<path fill-rule="evenodd" clip-rule="evenodd" d="M108.335 58.7064V46.8107C108.335 46.6229 108.345 46.4351 108.335 46.2472C108.315 45.9655 108.442 45.8716 108.7 45.8716C109.429 45.882 110.154 45.8716 110.883 45.8716C111.48 45.8716 112.078 45.882 112.676 45.8716C112.939 45.8716 113.055 45.9655 113.035 46.242C113.02 46.4559 113.035 46.6698 113.035 46.8837V64.722C113.035 64.9098 113.045 65.0977 113.035 65.2855C113.02 65.5933 113.152 65.729 113.445 65.7185C113.628 65.7133 113.81 65.7185 113.992 65.7185H124.132C124.314 65.7185 124.496 65.729 124.679 65.7185C124.982 65.7029 125.084 65.8542 125.084 66.1516C125.079 67.8368 125.079 69.5272 125.084 71.2124C125.084 71.5203 124.972 71.6559 124.674 71.635C124.517 71.6246 124.36 71.635 124.208 71.635H109.232C109.125 71.635 109.024 71.635 108.918 71.635C108.345 71.6194 108.335 71.6194 108.335 70.9933C108.335 66.8924 108.335 62.7968 108.335 58.6959V58.7064Z" fill="#A3A3A3"/>
<path fill-rule="evenodd" clip-rule="evenodd" d="M78.7434 58.7373C78.7434 54.7512 78.7434 50.7599 78.7434 46.7739C78.7434 46.586 78.7484 46.3982 78.7434 46.2104C78.7383 45.9756 78.8345 45.8765 79.0675 45.8765C80.3691 45.8765 81.6656 45.8765 82.9672 45.8765C83.1849 45.8765 83.3115 45.9495 83.3065 46.1999C83.3014 46.3878 83.3065 46.5756 83.3065 46.7634C83.3065 54.7408 83.3065 62.7182 83.3065 70.6956C83.3065 71.7234 83.4331 71.6452 82.3999 71.6504C81.4124 71.6504 80.4248 71.6504 79.4372 71.6504C78.7585 71.6504 78.7535 71.6452 78.7484 70.9512C78.7484 67.2312 78.7484 63.5113 78.7484 59.7913V58.7478L78.7434 58.7373Z" fill="#A3A3A3"/>
<path d="M6.73091 8.39482V5.69221H12.7526V11.2279C11.603 12.0366 10.58 12.5896 9.69366 12.8818C8.80737 13.174 7.75901 13.32 6.54353 13.32C5.04949 13.32 3.82894 13.0592 2.88694 12.5322C1.94494 12.0052 1.21058 11.2226 0.693996 10.1844C0.177415 9.14612 -0.0859375 7.95134 -0.0859375 6.60526C-0.0859375 5.18613 0.197672 3.95482 0.764899 2.90613C1.33213 1.85743 2.16271 1.06438 3.25665 0.516554C4.11255 0.0991625 5.26221 -0.114746 6.7056 -0.114746C8.14899 -0.114746 9.14163 0.0156887 9.83041 0.276558C10.5192 0.537428 11.0965 0.939171 11.5523 1.487C12.0082 2.03482 12.3525 2.72351 12.5804 3.56351L8.82257 4.25221C8.66556 3.76177 8.40727 3.38612 8.03756 3.12525C7.66785 2.86438 7.19685 2.73395 6.62456 2.73395C5.76866 2.73395 5.09001 3.04178 4.58356 3.65221C4.07711 4.26265 3.82388 5.23308 3.82388 6.55308C3.82388 7.95656 4.08217 8.96351 4.59369 9.56351C5.10521 10.1635 5.82436 10.4661 6.74104 10.4661C7.17659 10.4661 7.59189 10.4035 7.98692 10.2731C8.38195 10.1426 8.83269 9.92352 9.34421 9.61048V8.3896H6.74104L6.73091 8.39482Z" fill="#A3A3A3"/>
<path d="M15.1125 13.1008V0.114746H21.6053C22.8106 0.114746 23.7273 0.219086 24.3654 0.432999C25.0036 0.646912 25.5151 1.03823 25.9051 1.61736C26.295 2.19127 26.4875 2.89562 26.4875 3.71997C26.4875 4.43997 26.3406 5.06084 26.0418 5.58258C25.743 6.10432 25.3328 6.52693 24.8111 6.85562C24.4769 7.06432 24.0211 7.23126 23.4437 7.36692C23.9096 7.52866 24.2439 7.68518 24.4566 7.84692C24.5984 7.95127 24.8061 8.18084 25.0795 8.5304C25.353 8.87997 25.5354 9.14605 25.6265 9.33909L27.5105 13.1008H23.1094L21.0279 9.1304C20.7646 8.61909 20.5316 8.28517 20.324 8.12865C20.0454 7.93039 19.7263 7.82605 19.3718 7.82605H19.0274V13.0956H15.1125V13.1008ZM19.0274 5.37387H20.6683C20.8456 5.37387 21.19 5.31648 21.7015 5.19648C21.9598 5.14431 22.1725 5.00865 22.3346 4.78952C22.4966 4.57039 22.5777 4.31996 22.5777 4.03822C22.5777 3.62083 22.4511 3.29736 22.1928 3.07301C21.9345 2.84867 21.4483 2.73387 20.7392 2.73387H19.0274V5.37387Z" fill="#A3A3A3"/>
<path d="M36.6622 0.114597H40.5467V7.85198C40.5467 8.61894 40.4302 9.34416 40.1972 10.0276C39.9642 10.7111 39.5996 11.3059 39.1033 11.8172C38.607 12.3285 38.0853 12.6885 37.5434 12.892C36.7888 13.1789 35.8772 13.325 34.8187 13.325C34.2059 13.325 33.5374 13.2833 32.8131 13.1946C32.0889 13.1059 31.4812 12.9285 30.995 12.6676C30.5088 12.4068 30.0631 12.0311 29.6579 11.5459C29.2528 11.0607 28.9793 10.565 28.8274 10.0485C28.5843 9.22417 28.4678 8.4885 28.4678 7.85198V0.114597H32.3523V8.03459C32.3523 8.74416 32.5447 9.2972 32.9246 9.69372C33.3044 10.0902 33.8362 10.2885 34.5098 10.2885C35.1833 10.2885 35.705 10.0902 36.0899 9.69894C36.4697 9.30764 36.6622 8.74939 36.6622 8.02939V0.109375V0.114597Z" fill="#A3A3A3"/>
<path d="M43.1093 0.114746H49.5818C50.9897 0.114746 52.0482 0.459089 52.7522 1.153C53.4561 1.8417 53.8056 2.82778 53.8056 4.10082C53.8056 5.37387 53.4207 6.43822 52.6559 7.17388C51.8912 7.90953 50.7213 8.27996 49.1513 8.27996H47.0191V13.1008H43.1042V0.114746H43.1093ZM47.0242 5.65039H47.9763C48.7259 5.65039 49.2526 5.51474 49.5565 5.24866C49.8603 4.98257 50.0123 4.63822 50.0123 4.21561C50.0123 3.793 49.8806 3.46431 49.6172 3.17735C49.3539 2.89561 48.8576 2.75474 48.1283 2.75474H47.0191V5.65039H47.0242Z" fill="#A3A3A3"/>
<path d="M55.3552 6.61583C55.3552 4.49757 55.9275 2.84367 57.0772 1.66453C58.2268 0.485404 59.8221 -0.109375 61.8682 -0.109375C63.9143 -0.109375 65.5805 0.469754 66.72 1.63323C67.8545 2.79149 68.4217 4.41932 68.4217 6.5115C68.4217 8.02976 68.1735 9.2715 67.6772 10.2471C67.1809 11.2176 66.4668 11.9741 65.5299 12.5167C64.5929 13.0593 63.423 13.3254 62.0252 13.3254C60.6274 13.3254 59.4271 13.0906 58.4952 12.6263C57.5634 12.1619 56.8087 11.4211 56.2314 10.4141C55.654 9.40192 55.3603 8.13932 55.3603 6.62106L55.3552 6.61583ZM59.2498 6.63149C59.2498 7.94105 59.4879 8.88541 59.9589 9.45932C60.4299 10.0332 61.0731 10.3202 61.8885 10.3202C62.7039 10.3202 63.3724 10.0385 63.8332 9.48019C64.2941 8.92193 64.522 7.91497 64.522 6.45932C64.522 5.23845 64.284 4.34627 63.8029 3.77757C63.3217 3.21409 62.6735 2.93236 61.853 2.93236C61.0326 2.93236 60.4349 3.21931 59.9589 3.79322C59.4828 4.36714 59.2448 5.31149 59.2448 6.63671L59.2498 6.63149Z" fill="#A3A3A3"/>
</g>
<defs>
<clipPath id="clip0_85_513">
<rect width="180.297" height="72" fill="white"/>
</clipPath>
</defs>
</svg>
