<svg width="181" height="55" viewBox="0 0 181 55" fill="none" xmlns="http://www.w3.org/2000/svg">
<path fill-rule="evenodd" clip-rule="evenodd" d="M165.794 22.7377V23.1806C165.794 24.522 166.2 25.5735 167.008 26.3415C167.817 27.1096 168.933 27.4968 170.345 27.4968C171.314 27.4968 172.184 27.2754 172.94 26.839C173.696 26.3972 174.425 25.6912 175.129 24.722L178.817 27.9247C177.916 29.3117 176.671 30.4184 175.215 31.1274C173.742 31.8398 172.031 32.1993 170.073 32.1993C167.115 32.1993 164.759 31.3071 162.996 29.5154C161.237 27.7236 160.355 25.3446 160.355 22.3697C160.355 19.0354 161.37 16.282 163.407 14.1105C165.444 11.9454 168.004 10.8586 171.102 10.8586C173.969 10.8586 176.217 11.7657 177.85 13.5778C179.482 15.3835 180.297 17.8866 180.297 21.0764C180.297 21.4016 180.272 21.9194 180.217 22.6329V22.7366L165.794 22.7377ZM166.086 19.3756H175.068C175.055 18.0053 174.709 16.9538 174.04 16.2071C173.363 15.4669 172.407 15.0936 171.181 15.0936C169.875 15.0936 168.793 15.453 167.944 16.1654C167.095 16.8853 166.478 17.9572 166.086 19.3756ZM152.483 31.4109L156.43 0H161.929L157.981 31.4109H152.483ZM144.337 31.4109L148.285 0H153.783L149.836 31.4109H144.337ZM136.193 31.4109L138.66 11.5304H144.16L141.692 31.4109H136.193ZM112.121 20.364C112.121 18.8215 111.737 17.6181 110.96 16.7463C110.177 15.8755 109.102 15.4391 107.73 15.4391C106.165 15.4391 104.925 16.0478 104.009 17.2726C103.1 18.4974 102.642 20.1779 102.642 22.3087C102.642 23.7678 103.053 24.9306 103.875 25.7949C104.698 26.6593 105.813 27.0946 107.226 27.0946C108.693 27.0946 109.873 26.4795 110.775 25.2483C111.67 24.0235 112.121 22.3911 112.121 20.364ZM78.8758 31.4109L82.8223 0H88.3221L86.8725 11.5304H90.3974L91.2325 4.92494H96.7712L95.8951 11.5304H99.5903L99.141 15.2562C99.3636 14.8914 99.6047 14.5395 99.8673 14.2004C101.599 11.9732 103.794 10.8597 106.468 10.8597C107.828 10.8597 109.022 11.1506 110.064 11.7251C111.099 12.2995 111.968 13.1574 112.664 14.3052L112.995 11.5304H123.423L125.379 21.99C125.499 22.758 125.584 23.4416 125.645 24.0438C125.705 24.645 125.731 25.2119 125.731 25.7596V26.2228C126.016 25.2879 126.288 24.4589 126.547 23.7315C126.806 22.9976 127.051 22.3751 127.29 21.8648L132.186 11.5293H138.501L128.199 31.4098H122.315L118.139 14.1972L115.968 31.4098H110.488L110.8 29.2041C110.151 30.201 109.341 30.9477 108.373 31.4526C107.398 31.9511 106.27 32.1993 104.99 32.1993C102.554 32.1993 100.657 31.3702 99.3041 29.7165C97.951 28.0627 97.2739 25.7318 97.2739 22.7377C97.2739 20.1693 97.7499 17.9411 98.704 16.0488H95.3329L93.3889 31.4109H87.8902L89.8537 16.0488H86.3062L84.3755 31.4109H78.8758ZM39.52 26.0987H39.8719C41.2312 26.1543 42.2006 26.1811 42.7843 26.1811C44.8597 26.1811 46.4919 25.9939 47.687 25.6216C48.874 25.2547 49.8762 24.6322 50.6795 23.7678C51.5607 22.8136 52.2317 21.6167 52.6892 20.1918C53.1467 18.767 53.3796 17.1624 53.3796 15.377C53.3796 12.4642 52.7887 10.3558 51.6018 9.06898C50.4138 7.77571 48.4636 7.13174 45.744 7.13174H35.9817L36.6619 1.74363H42.6325C46.0025 1.74363 48.3836 1.85487 49.7839 2.0763C51.1832 2.30415 52.3578 2.67107 53.2996 3.18239C55.296 4.27456 56.8286 5.90051 57.8904 8.04527C58.9522 10.1975 59.4826 12.7563 59.4826 15.7236C59.4826 18.6011 59.0045 21.0786 58.0556 23.1453C57.1005 25.2141 55.6078 27.0122 53.5704 28.5558C52.2101 29.5795 50.6251 30.3134 48.8206 30.7552C47.0161 31.1916 44.2103 31.412 40.4156 31.412H32.9133L34.7568 16.8158H40.6895L39.52 26.0987ZM64.6479 19.3756H73.6294C73.6161 18.0053 73.2714 16.9538 72.6015 16.2071C71.9244 15.4669 70.9693 15.0936 69.7424 15.0936C68.4354 15.0936 67.3541 15.453 66.5047 16.1654C65.6553 16.8853 65.0387 17.9572 64.6479 19.3756ZM64.3555 22.7377V23.1806C64.3555 24.522 64.7597 25.5735 65.5691 26.3415C66.3796 27.1096 67.4926 27.4968 68.9063 27.4968C69.8747 27.4968 70.7447 27.2754 71.5007 26.839C72.2568 26.3972 72.9862 25.6912 73.69 24.722L77.378 27.9247C76.4761 29.3112 75.2316 30.4178 73.7761 31.1274C72.303 31.8398 70.5918 32.1993 68.6344 32.1993C65.6758 32.1993 63.3204 31.3071 61.5559 29.5154C59.7985 27.7236 58.9153 25.3446 58.9153 22.3697C58.9153 19.0354 59.9298 16.282 61.9672 14.1105C64.0036 11.9454 66.5642 10.8586 69.6624 10.8586C72.5276 10.8586 74.7774 11.7657 76.4085 13.5778C78.0407 15.3835 78.8563 17.8866 78.8563 21.0764C78.8563 21.4016 78.8296 21.9194 78.7763 22.6329V22.7366L64.3555 22.7377Z" fill="#A3A3A3"/>
<path fill-rule="evenodd" clip-rule="evenodd" d="M121.482 44.9429L122.794 34.5218H124.043L122.725 44.9429H121.482ZM130.94 44.9429L131.443 40.9443C131.471 40.7492 131.485 40.5522 131.486 40.3549C131.486 39.9613 131.387 39.6628 131.194 39.4596C131.002 39.2585 130.716 39.159 130.339 39.159C129.848 39.159 129.454 39.3655 129.16 39.7805C128.867 40.1966 128.669 40.8192 128.564 41.6493L128.139 44.944H127.067L127.901 38.4327H128.939L128.794 39.4361C129.089 39.0178 129.414 38.7076 129.765 38.5033C130.115 38.3 130.497 38.1973 130.911 38.1973C131.331 38.1973 131.686 38.3043 131.976 38.5204C132.268 38.7365 132.461 39.0381 132.556 39.4222C132.871 39.0146 133.213 38.7087 133.584 38.5043C133.954 38.3011 134.348 38.1984 134.768 38.1984C135.299 38.1984 135.724 38.3685 136.033 38.7108C136.345 39.0531 136.5 39.5174 136.5 40.1057C136.494 40.3486 136.476 40.591 136.447 40.832L135.927 44.9451H134.837L135.34 40.954C135.368 40.7564 135.383 40.5569 135.382 40.3571C135.382 39.9634 135.284 39.665 135.091 39.4617C134.898 39.2606 134.613 39.1611 134.236 39.1611C133.729 39.1611 133.337 39.3612 133.05 39.7591C132.766 40.1581 132.569 40.7903 132.46 41.6525L132.043 44.9472H130.94V44.9429ZM143.371 39.113C143.048 39.1055 142.728 39.1728 142.433 39.3103C142.139 39.4478 141.877 39.6519 141.668 39.9078C141.22 40.4352 140.997 41.108 140.997 41.9242C140.997 42.642 141.19 43.2175 141.579 43.6571C141.968 44.0968 142.481 44.315 143.119 44.315C143.803 44.315 144.367 44.0529 144.811 43.5266C145.256 42.9993 145.48 42.3307 145.48 41.5188C145.48 40.8171 145.284 40.2405 144.89 39.7891C144.496 39.3398 143.99 39.113 143.371 39.113ZM139.903 41.9542C139.903 40.8855 140.241 39.9934 140.915 39.2745C141.588 38.5546 142.425 38.1952 143.424 38.1952C144.331 38.1952 145.078 38.4936 145.67 39.0895C146.262 39.6853 146.557 40.4255 146.557 41.3123C146.557 42.4687 146.232 43.4122 145.578 44.1342C144.924 44.8584 144.083 45.221 143.047 45.221C142.096 45.221 141.335 44.9215 140.762 44.3236C140.189 43.7256 139.903 42.9361 139.903 41.9542ZM143.398 37.4058H142.574L144.159 34.9272H145.454L143.398 37.4058ZM149.463 38.4295H150.625L151.969 42.9575L154.448 38.4295H155.69L151.675 45.3344L149.463 38.4295ZM163.979 41.8761L158.975 41.8836V41.9969C158.975 42.6944 159.146 43.2442 159.488 43.6443C159.828 44.0454 160.294 44.2455 160.885 44.2455C161.254 44.2455 161.593 44.1535 161.904 43.9684C162.214 43.7812 162.512 43.4945 162.804 43.1052L163.553 43.747C163.19 44.2401 162.788 44.6102 162.352 44.852C161.914 45.097 161.439 45.22 160.924 45.22C159.992 45.22 159.251 44.9258 158.703 44.3407C158.156 43.7545 157.881 42.9629 157.881 41.9659C157.881 40.8791 158.201 39.9816 158.837 39.267C159.475 38.5525 160.271 38.1952 161.232 38.1952C162.106 38.1952 162.784 38.4723 163.267 39.0285C163.749 39.5826 163.991 40.3646 163.991 41.3701C163.991 41.5092 163.991 41.614 163.988 41.6835C163.987 41.7478 163.983 41.812 163.979 41.8761ZM162.941 40.9508C162.932 40.3624 162.778 39.9078 162.48 39.5901C162.181 39.2724 161.763 39.1141 161.221 39.1141C160.683 39.1141 160.221 39.2788 159.832 39.6126C159.443 39.9463 159.189 40.3913 159.07 40.9518L162.941 40.9508ZM168.102 35.3476C168.101 35.2462 168.12 35.1457 168.158 35.0524C168.196 34.9591 168.252 34.875 168.323 34.8053C168.392 34.7319 168.474 34.6737 168.565 34.6344C168.656 34.595 168.754 34.5753 168.852 34.5764C168.95 34.5747 169.048 34.5934 169.138 34.6315C169.229 34.6695 169.312 34.7262 169.381 34.7981C169.451 34.8699 169.506 34.9556 169.543 35.05C169.58 35.1444 169.599 35.2456 169.598 35.3476C169.601 35.4513 169.583 35.5544 169.546 35.6507C169.509 35.747 169.454 35.8346 169.384 35.9082C169.315 35.9827 169.233 36.0416 169.141 36.0811C169.05 36.1205 168.951 36.1396 168.852 36.1371C168.754 36.138 168.656 36.1179 168.565 36.0782C168.474 36.0385 168.392 35.9799 168.323 35.906C168.252 35.8335 168.195 35.7465 168.157 35.6505C168.119 35.5546 168.1 35.4515 168.102 35.3476ZM167.209 44.9429L168.034 38.4295H169.12L168.293 44.9429H167.209ZM172.076 43.9952L172.772 43.1319C173.001 43.5159 173.261 43.8058 173.549 43.9984C173.837 44.1898 174.157 44.2883 174.507 44.2883C174.899 44.2883 175.209 44.1931 175.44 44.0059C175.551 43.9176 175.641 43.8026 175.701 43.6706C175.761 43.5386 175.79 43.3934 175.784 43.2474C175.784 42.8923 175.46 42.5596 174.815 42.2505C174.65 42.1702 174.521 42.1018 174.426 42.0515C173.829 41.752 173.433 41.4749 173.238 41.2182C173.042 40.9625 172.944 40.6395 172.944 40.2512C172.944 39.6532 173.156 39.1622 173.578 38.7761C174.001 38.3899 174.546 38.1952 175.211 38.1952C175.628 38.1952 176.017 38.2754 176.372 38.4391C176.727 38.5985 177.047 38.837 177.334 39.1558L176.68 39.9741C176.503 39.7215 176.271 39.5157 176.004 39.373C175.733 39.2363 175.436 39.1671 175.135 39.1708C174.822 39.1708 174.555 39.266 174.338 39.4532C174.119 39.6414 174.01 39.8618 174.01 40.1175C174.01 40.4694 174.396 40.8171 175.171 41.1647L175.28 41.2128C175.895 41.491 176.304 41.7627 176.515 42.0322C176.724 42.305 176.83 42.657 176.83 43.0945C176.83 43.7534 176.625 44.2733 176.214 44.6541C175.807 45.0328 175.245 45.2232 174.536 45.2232C174.006 45.2232 173.543 45.1226 173.143 44.9237C172.722 44.7056 172.357 44.3875 172.076 43.9952ZM142.367 0.401367C143.236 0.403064 144.068 0.763579 144.682 1.40396C145.297 2.04433 145.642 2.91238 145.644 3.81801C145.642 4.72364 145.297 5.5917 144.682 6.23208C144.068 6.87246 143.236 7.23296 142.367 7.23466C141.499 7.23268 140.667 6.87205 140.053 6.2317C139.439 5.59135 139.093 4.72346 139.092 3.81801C139.093 2.91248 139.439 2.04443 140.053 1.40402C140.667 0.763614 141.499 0.403064 142.367 0.401367ZM66.9827 48.0376L68.0516 37.317L69.1216 48.0376H66.9827Z" fill="#A3A3A3"/>
<path fill-rule="evenodd" clip-rule="evenodd" d="M68.0403 38.7132L74.0745 32.8384L87.8233 46.2675L86.6764 46.2974L74.0745 37.4264L69.7309 40.5371L68.0403 38.7132Z" fill="#A3A3A3"/>
<path fill-rule="evenodd" clip-rule="evenodd" d="M49.0135 34.892L56.9999 27.1152L76.3152 45.9239L74.5445 45.8811L56.9999 33.5431L51.891 37.5106L49.0135 34.892ZM15.6313 51.8372L17.1681 35.7403L18.7039 51.8372H15.6313Z" fill="#A3A3A3"/>
<path fill-rule="evenodd" clip-rule="evenodd" d="M48.6924 49.5074L50.2292 35.7402L51.7649 49.5074H48.6924ZM81.0671 48.1959L81.7944 41.2161L82.5218 48.1959H81.0671Z" fill="#A3A3A3"/>
<path fill-rule="evenodd" clip-rule="evenodd" d="M0 54.8707C46.1143 41.7496 93.0975 42.6931 139.212 54.9948C89.4043 47.1335 48.5559 47.3314 0 54.8707Z" fill="#A3A3A3"/>
<path fill-rule="evenodd" clip-rule="evenodd" d="M6.9104 45.9236L33.773 19.7671L60.6357 45.9236L57.397 45.8936L33.773 27.8616L10.1491 45.8936L6.9104 45.9236Z" fill="#A3A3A3"/>
</svg>
