<svg width="182" height="32" viewBox="0 0 182 32" fill="none" xmlns="http://www.w3.org/2000/svg">
<path d="M96.4073 11.2507H92.5925L90.142 23.2798L90.0464 23.7496C89.7373 25.3409 91.3462 26.7794 92.9072 26.7794H94.391L93.5016 31.1431C93.5016 31.1431 89.7823 31.1576 89.6825 31.1431C86.3806 30.9831 83.7474 28.1758 83.7474 24.7431C83.7474 24.4231 83.7727 24.0885 83.8177 23.7831C83.8486 23.5649 88.1693 3.20123 88.1693 3.20123H94.2392L93.4805 6.90596H97.2883L96.4031 11.2638L96.4073 11.2507ZM72.2075 6.91614C69.0277 6.92196 66.4368 9.5736 66.4368 12.8565C66.4368 14.1947 66.7487 15.242 67.6002 16.4201C67.9093 16.842 68.4994 17.402 68.4994 17.402C68.9687 17.8558 72.3353 20.7561 74.6678 23.0107C75.0682 23.3976 75.8284 24.0871 75.8284 24.7474C75.8284 25.3918 75.3169 25.9111 74.6903 25.9111H74.4654L65.0036 25.9067L63.9498 31.1431H74.2252L74.5062 31.1489C78.6652 31.1489 81.9953 28.9132 82.2398 24.6369C82.3761 22.2223 81.8239 20.8463 79.7949 18.8332C78.1959 17.2551 74.0945 13.6798 73.6491 13.2405C73.4706 13.0907 73.3161 12.7751 73.3161 12.4187C73.3161 11.7743 73.8219 11.2551 74.4458 11.2551H75.1905L81.5471 11.258L82.4323 6.90451L73.9455 6.89724H72.2173L72.2075 6.91614ZM58.2086 14.7125L54.8406 31.1271H61.2801C61.6229 29.4398 63.2542 21.4631 64.5596 15.162L64.613 14.8769C64.7394 14.3678 64.8069 13.8369 64.8069 13.2871C64.8069 9.74378 62.0107 6.88414 58.5711 6.88414H48.8999L48.7594 6.87978C47.3992 6.87978 46.2583 7.86451 45.9829 9.18087L45.945 9.37724C45.8326 9.85287 41.4627 31.1271 41.4627 31.1271H47.8137L51.6637 12.4856L51.7339 12.1336C51.8463 11.6216 52.2988 11.242 52.8327 11.242H55.411C56.9707 11.242 58.6484 12.5511 58.3083 14.1511C58.2704 14.3256 58.2268 14.5292 58.1959 14.7038M117.772 23.3147L121.144 6.90742H114.709C114.366 8.59469 112.736 16.5656 111.43 22.8681L111.374 23.1503C111.251 23.6594 111.183 24.1976 111.183 24.7503C111.183 28.2892 113.979 31.1503 117.422 31.1503H127.243C128.606 31.1503 129.744 30.1685 130.021 28.8521L130.059 28.6558C130.167 28.1816 134.537 6.90887 134.537 6.90887H128.186L124.336 25.5561L124.27 25.9052C124.149 26.4201 123.694 26.7998 123.16 26.7998H120.697L120.575 26.8027C119.012 26.8027 117.447 25.4136 117.715 23.7918L117.791 23.3263L117.772 23.3147ZM140.714 23.3147L143.01 12.1147C143.153 11.5911 143.586 11.242 144.1 11.242H148.625L149.517 6.87833L142.931 6.88269C139.98 6.88269 137.522 8.99178 136.867 11.8223L136.829 12.0056C136.173 15.1954 135.325 19.2871 134.588 22.8449L134.534 23.1256C134.411 23.6347 134.34 24.1729 134.34 24.7227C134.34 28.2645 137.137 31.1227 140.579 31.1227H147.33L148.216 26.7692H143.6L143.488 26.7751C141.918 26.7751 140.27 25.3787 140.614 23.7991C140.651 23.6201 140.675 23.4878 140.705 23.3147M11.9882 7.20851C12.2552 5.88487 13.3891 4.89287 14.7534 4.89287L15.182 4.88851L21.4838 4.87396L22.369 0.520508H10.9878C8.06523 0.526326 5.62038 2.60342 4.94594 5.39614L1.30114 23.1561C1.17468 23.6652 1.10864 24.2034 1.10864 24.7518C1.10864 28.2921 3.89071 31.162 7.33318 31.162H17.4217L18.3069 26.8071H11.2688H11.4655C9.90027 26.8071 8.24368 25.5067 8.57106 23.8572L8.68628 23.29L11.9882 7.20851ZM35.1694 14.2398C35.4883 12.5612 33.8626 11.2871 32.2974 11.2871L32.1386 11.2827H29.7036C29.1696 11.2827 28.7158 11.6652 28.5964 12.1772L28.5289 12.5263L27.2292 18.81L26.3019 23.2783L26.1894 23.7932C25.8845 25.3889 27.5102 26.8012 29.0741 26.8012H31.6552C32.1892 26.8012 32.6444 26.4231 32.7653 25.9081L34.1324 19.2783L35.0598 14.7663L35.1525 14.2383L35.1694 14.2398ZM20.3682 21.2507L21.3658 16.3925L21.5063 15.7045C22.1344 12.65 22.7568 9.64778 22.8074 9.42087L22.8453 9.22305C23.1123 7.91396 24.2504 6.92487 25.6134 6.92487L25.7539 6.93942H35.4209C38.8633 6.93942 41.6595 9.80196 41.6595 13.3394C41.6595 13.8921 41.5892 14.4274 41.4627 14.9351L41.4094 15.2201L41.304 15.722L39.934 22.3954C39.3017 25.45 38.6835 28.4536 38.6343 28.6791L38.5992 28.8798C38.3266 30.1947 37.1857 31.178 35.8269 31.178H26.0194C22.577 31.178 19.7808 28.3154 19.7808 24.7736C19.7808 24.2281 19.8511 23.6972 19.9776 23.1852L20.0338 22.9031L20.3654 21.274L20.3682 21.2507ZM108.543 6.89142H112.347L111.459 11.2478L107.069 11.2507H106.971C106.433 11.2507 105.984 11.6434 105.875 12.1671L101.905 31.1343H95.7792C95.7792 31.1343 99.601 12.3081 99.7092 11.8354C100.356 9.00342 102.82 6.89433 105.771 6.89433H108.081L108.554 6.89142H108.543ZM159.522 26.7794H160.703L159.812 31.1431C159.812 31.1431 155.639 31.1576 155.54 31.1431C152.238 30.9831 149.605 28.1758 149.605 24.7431C149.605 24.4231 149.628 24.0885 149.676 23.7831C149.706 23.5707 154.023 3.20123 154.023 3.20123H160.548L159.792 6.90742H163.596L162.711 11.2652H158.903L156.458 23.2943L156.36 23.7641C156.062 25.3554 157.666 26.794 159.226 26.794H159.535L159.522 26.7794ZM168.377 20.4812L167.815 23.3321C167.784 23.5067 167.763 23.6667 167.738 23.8558C167.513 25.4354 169.031 26.7881 170.604 26.7881H172.023L173.457 19.5591H169.499C168.96 19.5591 168.476 19.9751 168.363 20.4958M166.919 11.2594L167.804 6.89578L174.37 6.90014C174.978 6.90014 175.4 6.91469 175.924 7.02087C179.302 7.69724 181.48 11.0587 180.822 14.5351L180.663 15.3161L178.535 25.6725L177.877 28.8507C177.599 30.1598 176.458 31.1431 175.103 31.1431H168.564C165.122 31.1431 162.33 28.2732 162.33 24.7329C162.33 24.1801 162.397 23.6478 162.526 23.1387L163.57 18.0958L163.599 17.9649C163.846 16.618 164.99 15.6041 166.367 15.6041L174.305 15.5998L174.477 14.7707L174.585 14.218C174.908 12.5452 173.278 11.2652 171.713 11.2652L166.922 11.2594H166.919Z" fill="#A3A3A3"/>
</svg>
