<?xml version="1.0" encoding="UTF-8"?>
<svg id="Camada_2" data-name="Camada 2" xmlns="http://www.w3.org/2000/svg" viewBox="0 0 356.36 138.41">
  <defs>
    <style>
      .cls-1, .cls-2 {
        fill: #fff;
      }

      .cls-2, .cls-3, .cls-4 {
        fill-rule: evenodd;
      }

      .cls-3 {
        fill: #ff0404;
      }

      .cls-4 {
        fill: #ff0303;
      }
    </style>
  </defs>
  <g id="Layer_1" data-name="Layer 1">
    <g>
      <path class="cls-2" d="M92.3,44.93v1.91c0,10.88,0,21.77,0,32.65,0,1.83.27,1.69-1.76,1.69-3.13,0-6.26,0-9.4,0-1.59,0-1.42.07-1.42-1.4,0-10.73,0-21.46,0-32.19,0-4.88,0-9.75,0-14.63,0-1.17.02-1.19,1.15-1.19,5.96,0,11.91,0,17.87,0,1.13,0,1.14.01,1.46,1.23,2.3,8.93,4.6,17.86,6.9,26.79.13.49.28.97.51,1.77.93-3.64,1.79-6.96,2.64-10.29,1.56-6.1,3.09-12.22,4.67-18.31.34-1.31.02-1.19,1.49-1.19,5.9,0,11.81,0,17.71,0,1.13,0,1.15.02,1.15,1.19,0,15.66,0,31.32,0,46.98,0,1.23-.02,1.24-1.26,1.24-3.23,0-6.47,0-9.7,0-1.66,0-1.5.19-1.5-1.45,0-7.39,0-14.79,0-22.18v-12.86c-.48.38-.48.85-.59,1.28-2.87,11.22-5.73,22.44-8.6,33.66-.06.25-.16.49-.19.74-.09.62-.43.82-1.05.82-3.18-.02-6.37-.04-9.55,0-.79.01-1.07-.29-1.24-1.01-.78-3.18-1.61-6.35-2.42-9.53-2.08-8.19-4.16-16.39-6.25-24.58-.08-.32-.1-.69-.61-1.16Z"/>
      <path class="cls-2" d="M26.45,80.94v-1.46c0-15.35,0-30.69,0-46.04,0-1.88-.25-1.66,1.6-1.66,8.78,0,17.55,0,26.33.03,2.11,0,4.2.24,6.27.63,6.04,1.15,9.75,5.29,10.38,11.51.71,7.1-3.09,12.83-9.91,14.92-.49.15-.98.28-1.62.46.18.12.29.24.42.28,3.62,1.09,5.77,3.88,7.48,6.93,2.61,4.64,4.96,9.43,7.42,14.15.04.08.04.19.06.29-.28.33-.67.2-1.01.2-4.98,0-9.96-.02-14.93.03-.92,0-1.35-.32-1.76-1.09-2.51-4.7-5.07-9.38-7.6-14.07-.54-.99-1.1-1.97-1.81-2.85-1.4-1.72-3.32-2.08-5.38-2.09-.38,0-.57.17-.58.54,0,.36,0,.72,0,1.08,0,5.75,0,11.5,0,17.24,0,1.19-.02,1.21-1.15,1.21-4.41,0-8.83,0-13.24,0-.31,0-.62.03-.96-.24ZM41.8,46.75c0,.82-.03,1.64,0,2.46.04.81-.36,1.82.17,2.37.54.56,1.56.17,2.36.19,2.61.05,5.22.07,7.79-.6,2.17-.57,3.55-2.17,3.58-4.38.04-2.46-1.1-3.98-3.45-4.58-.59-.15-1.21-.28-1.81-.3-2.61-.06-5.23-.04-7.84-.1-.75-.02-.82.35-.81.94.03,1.33,0,2.67,0,4Z"/>
      <path class="cls-2" d="M286.28,56.38c-.03,3.14-.25,6.26-1.11,9.29-2.24,7.97-7.37,13.17-15.35,15.3-6.37,1.71-12.84,1.52-19.17-.35-7.07-2.08-11.7-6.93-13.98-13.81-2.31-6.95-2.25-14.05.13-21,2.31-6.76,7.01-11.27,13.8-13.42,6.79-2.15,13.69-2.11,20.45.04,7.91,2.52,12.61,8.11,14.47,16.14.6,2.56.76,5.17.76,7.79ZM270.93,56.38c0-.97.07-1.95-.02-2.92-.1-1.07-.28-2.14-.52-3.18-1.09-4.72-4.57-7.62-9.25-7.74-5.11-.12-8.59,2.33-9.9,7.22-1.24,4.65-1.23,9.35.1,13.99,1.11,3.87,3.75,6.18,7.76,6.73,4.38.6,9.64-.83,11.14-7.24.53-2.26.76-4.54.69-6.86Z"/>
      <path class="cls-2" d="M102.66,121.21c1.25-.1,2.47-.21,3.68-.29,3.28-.21,6.56-.38,9.83-.63.84-.06,1.06.24,1.16.99.09.7.31,1.4.55,2.07,1.13,3.18,3.42,4.89,6.75,5.19,1.64.15,3.28.13,4.82-.61,1.79-.85,3.01-2.16,3.08-4.23.06-2.03-1.07-3.37-2.77-4.27-1.96-1.04-4.11-1.53-6.26-2.03-3.4-.78-6.76-1.69-9.95-3.13-1.41-.63-2.74-1.39-3.98-2.31-6.91-5.07-6.53-14.69-.81-19.87,2.42-2.19,5.3-3.48,8.48-4.07,5.92-1.09,11.85-1.17,17.69.45,6.12,1.7,9.54,5.87,10.68,12.03.05.25.03.52.09.76.15.62-.13.82-.71.85-1.79.09-3.59.2-5.38.31-2.41.14-4.82.27-7.22.45-.68.05-1.06-.1-1.18-.82-.07-.45-.23-.89-.39-1.32-.88-2.31-2.54-3.65-4.99-4.05-1.34-.22-2.66-.23-3.98.06-.98.21-1.82.67-2.47,1.46-1.29,1.57-1.04,3.38.66,4.5.95.63,2.05.93,3.15,1.19,3.59.85,7.2,1.59,10.71,2.72,1.85.6,3.68,1.26,5.43,2.13,9.34,4.63,9.68,14.7,5.71,21.09-2.52,4.06-6.26,6.41-10.8,7.58-4.43,1.14-8.94,1.15-13.46.78-1.95-.16-3.86-.49-5.76-.96-6.12-1.53-9.71-5.62-11.59-11.42-.47-1.46-.78-2.96-.81-4.61Z"/>
      <path class="cls-2" d="M291.86,64.81c4.67-.3,9.22-.58,13.77-.89.64-.04.77.24.85.78.16.96.39,1.91.79,2.81,1.22,2.79,3.36,4.32,6.36,4.65,1.43.16,2.87.16,4.26-.3.43-.14.87-.31,1.27-.53,1.56-.9,2.61-2.21,2.63-4.06.02-1.86-1.02-3.2-2.59-4.07-2.03-1.13-4.29-1.64-6.53-2.16-3.35-.77-6.66-1.66-9.8-3.08-1.45-.66-2.83-1.43-4.12-2.38-6.64-4.87-6.36-14.03-1.48-19.12,2-2.09,4.43-3.54,7.19-4.27,6.41-1.69,12.88-1.78,19.32-.14,6.63,1.68,10.15,6.15,11.18,12.78.11.69-.05.92-.73.95-1.84.08-3.69.21-5.53.32-2.36.14-4.71.26-7.07.43-.66.05-1.05-.08-1.19-.8-.91-4.73-4.75-5.96-8.72-5.44-.94.12-1.8.41-2.54,1.01-2,1.61-1.78,4.07.48,5.28,1.19.63,2.49.93,3.79,1.22,4.15.92,8.29,1.87,12.28,3.35,1.83.68,3.58,1.53,5.17,2.67,4.52,3.26,6.29,7.77,5.61,13.16-.89,7.12-5.75,12.24-13.02,14.08-4.49,1.13-9.04,1.13-13.61.77-1.69-.13-3.36-.42-5.01-.79-6.45-1.43-10.3-5.58-12.24-11.71-.45-1.41-.73-2.87-.78-4.53Z"/>
      <path class="cls-2" d="M356.32,137.41c-.32.24-.69.15-1.04.15-4.52,0-9.03,0-13.55,0-1.22,0-1.23-.01-1.58-1.16-.63-2.06-1.27-4.11-1.86-6.18-.16-.57-.39-.83-1.03-.83-5.23.03-10.47.02-15.7,0-.63,0-.87.23-1.03.82-.59,2.12-1.27,4.22-1.87,6.33-.19.66-.44,1.03-1.24,1.02-4.72-.04-9.44-.03-14.16-.04-.1,0-.19-.06-.32-.1-.22-.42.1-.76.23-1.11,5.87-15.63,11.75-31.25,17.63-46.88.49-1.3.5-1.31,1.8-1.31,4.77,0,9.55.02,14.32-.02.85,0,1.24.23,1.54,1.05,5.88,15.79,11.79,31.56,17.7,47.34.11.29.27.56.17.88ZM329.59,101.47c-.09,0-.17.01-.26.02-1.73,5.68-3.46,11.36-5.2,17.06h10.68c-1.77-5.78-3.5-11.43-5.23-17.08Z"/>
      <path class="cls-3" d="M136.55,85.28c.12-.68.53-1.01.83-1.4,2.59-3.32,5.16-6.65,7.79-9.94.67-.84.98-1.69.98-2.79-.03-17.81-.02-35.63-.02-53.44q0-1.99,1.91-1.99h26.64c.15,0,.31,0,.46,0,1.47.01,1.45-.19,1.44,1.38,0,1.07,0,2.15,0,3.49,1.25-.97,1.88-2.13,2.7-3.12.88-1.07,1.72-2.17,2.57-3.26.82-1.04,1.63-2.08,2.57-3.28,1.7,1.94,3.41,3.71,4.91,5.64,17.38,22.44,34.73,44.9,52.08,67.36.27.35.63.66.76,1.36-1.38,0-2.69,0-4,0-1.08,0-2.26.23-3.2-.14-1-.4-1.49-1.63-2.18-2.52-15.57-20.14-31.14-40.28-46.71-60.42-.37-.48-.76-.95-1.13-1.41-.47.18-.67.56-.92.88-2.25,2.87-4.48,5.75-6.75,8.6-.51.64-.73,1.29-.72,2.11.03,3.85.02,7.7.01,11.55,0,1.23-.02,1.24-1.28,1.25-1.13,0-2.26,0-3.39,0-1.87,0-1.6,0-1.6-1.55,0-5.03,0-10.06,0-15.09,0-2.62-.02-5.24.01-7.85.01-.77-.18-1.09-1.01-1.08-5.13.03-10.27.03-15.4,0-.78,0-.99.3-.92,1,.03.36,0,.72,0,1.08,0,16.99-.01,33.99.02,50.98,0,1.1-.3,1.94-.98,2.78-2.38,2.96-4.71,5.96-7.03,8.97-.48.63-.97.93-1.79.9-2.19-.06-4.38-.02-6.66-.02Z"/>
      <path class="cls-2" d="M276.46,123.14c3.43-11.11,6.86-22.21,10.29-33.31q.52-1.67,2.26-1.67h13.6c.15.51-.13.91-.28,1.3-5.79,15.61-11.59,31.21-17.39,46.82-.55,1.49-.33,1.28-1.82,1.29-4.67.01-9.34-.02-14.01.02-.89,0-1.34-.22-1.68-1.12-5.9-15.73-11.85-31.44-17.78-47.16-.13-.33-.3-.65-.25-1.05.48-.22,1-.1,1.49-.1,4.11-.01,8.21,0,12.32,0q2.01,0,2.59,1.86c3.29,10.51,6.58,21.02,9.87,31.53.16.53.36,1.04.53,1.56.09.01.17.02.25.04Z"/>
      <path class="cls-2" d="M15.39,56.41v22.95c0,.26,0,.51,0,.77-.03,1.04-.03,1.05-1.14,1.06-1.39.01-2.77,0-4.16,0-2.82,0-5.65,0-8.47,0-1.85,0-1.59.03-1.6-1.55,0-6.31,0-12.63,0-18.94v-26.95c0-.31.03-.62,0-.92-.09-.78.18-1.09,1.01-1.06,1.64.06,3.28.02,4.93.02,2.67,0,5.34,0,8.01,0,1.53,0,1.42-.2,1.42,1.37,0,7.03,0,14.07,0,21.1v2.16Z"/>
      <path class="cls-4" d="M214.09,112.73v-22.8c0-.36.02-.72,0-1.08-.04-.54.21-.72.72-.72,1.44.02,2.87,0,4.31,0,1.18,0,2.36.02,3.54,0,.52,0,.75.18.71.71-.03.41,0,.82,0,1.23v34.19c0,.36.02.72,0,1.08-.03.59.23.85.81.83.36-.01.72,0,1.08,0h20.02c.36,0,.72.02,1.08,0,.6-.03.8.26.8.83-.01,3.23-.01,6.47,0,9.7,0,.59-.22.85-.81.81-.31-.02-.62,0-.92,0h-29.57c-.21,0-.41,0-.62,0-1.13-.03-1.15-.03-1.15-1.23,0-7.86,0-15.71,0-23.57Z"/>
      <path class="cls-4" d="M155.65,112.79c0-7.64,0-15.29,0-22.93,0-.36.01-.72,0-1.08-.01-.45.18-.64.64-.64,2.57,0,5.13,0,7.7,0,.43,0,.68.14.67.62-.01.36,0,.72,0,1.08,0,15.29,0,30.58,0,45.87,0,1.97.25,1.82-1.79,1.83-1.95,0-3.9,0-5.85,0-1.34,0-1.35-.01-1.36-1.34,0-7.13,0-14.26,0-21.39v-2Z"/>
      <g>
        <path class="cls-1" d="M13.46,16.3v-5.18h11.89v10.61c-2.27,1.55-4.29,2.61-6.04,3.17-1.75.56-3.82.84-6.22.84-2.95,0-5.36-.5-7.22-1.51-1.86-1.01-3.31-2.51-4.33-4.5-1.02-1.99-1.54-4.28-1.54-6.86,0-2.72.56-5.08,1.68-7.09,1.12-2.01,2.76-3.53,4.92-4.58,1.69-.8,3.96-1.21,6.81-1.21s4.81.25,6.17.75c1.36.5,2.5,1.27,3.4,2.32.9,1.05,1.58,2.37,2.03,3.98l-7.42,1.32c-.31-.94-.82-1.66-1.55-2.16-.73-.5-1.66-.75-2.79-.75-1.69,0-3.03.59-4.03,1.76-1,1.17-1.5,3.03-1.5,5.56,0,2.69.51,4.62,1.52,5.77,1.01,1.15,2.43,1.73,4.24,1.73.86,0,1.68-.12,2.46-.37.78-.25,1.67-.67,2.68-1.27v-2.34h-5.14Z"/>
        <path class="cls-1" d="M30.02,25.31V.42h12.82c2.38,0,4.19.2,5.45.61,1.26.41,2.27,1.16,3.04,2.27.77,1.1,1.15,2.45,1.15,4.03,0,1.38-.29,2.57-.88,3.57-.59,1-1.4,1.81-2.43,2.44-.66.4-1.56.72-2.7.98.92.31,1.58.61,2,.92.28.2.69.64,1.23,1.31.54.67.9,1.18,1.08,1.55l3.72,7.21h-8.69l-4.11-7.61c-.52-.98-.98-1.62-1.39-1.92-.55-.38-1.18-.58-1.88-.58h-.68v10.1h-7.73ZM37.74,10.51h3.24c.35,0,1.03-.11,2.04-.34.51-.1.93-.36,1.25-.78.32-.42.48-.9.48-1.44,0-.8-.25-1.42-.76-1.85-.51-.43-1.47-.65-2.87-.65h-3.38v5.06Z"/>
        <path class="cls-1" d="M72.57.42h7.67v14.83c0,1.47-.23,2.86-.69,4.17-.46,1.31-1.18,2.45-2.16,3.43-.98.98-2.01,1.67-3.08,2.06-1.49.55-3.29.83-5.38.83-1.21,0-2.53-.08-3.96-.25-1.43-.17-2.63-.51-3.59-1.01-.96-.5-1.84-1.22-2.64-2.15-.8-.93-1.34-1.88-1.64-2.87-.48-1.58-.71-2.99-.71-4.21V.42h7.67v15.18c0,1.36.38,2.42,1.13,3.18.75.76,1.8,1.14,3.13,1.14s2.36-.38,3.12-1.13c.75-.75,1.13-1.82,1.13-3.2V.42Z"/>
        <path class="cls-1" d="M85.3.42h12.78c2.78,0,4.87.66,6.26,1.99,1.39,1.32,2.08,3.21,2.08,5.65s-.76,4.48-2.27,5.89c-1.51,1.41-3.82,2.12-6.92,2.12h-4.21v9.24h-7.73V.42ZM93.02,11.04h1.88c1.48,0,2.52-.26,3.12-.77.6-.51.9-1.17.9-1.98s-.26-1.44-.78-1.99c-.52-.54-1.5-.81-2.94-.81h-2.19v5.55Z"/>
        <path class="cls-1" d="M109.48,12.89c0-4.06,1.13-7.23,3.4-9.49s5.42-3.4,9.46-3.4,7.33,1.11,9.58,3.34c2.24,2.22,3.36,5.34,3.36,9.35,0,2.91-.49,5.29-1.47,7.16-.98,1.86-2.39,3.31-4.24,4.35-1.85,1.04-4.16,1.55-6.92,1.55s-5.13-.45-6.97-1.34c-1.84-.89-3.33-2.31-4.47-4.24-1.14-1.94-1.72-4.36-1.72-7.27ZM117.17,12.92c0,2.51.47,4.32,1.4,5.42.93,1.1,2.2,1.65,3.81,1.65s2.93-.54,3.84-1.61c.91-1.07,1.36-3,1.36-5.79,0-2.34-.47-4.05-1.42-5.14-.95-1.08-2.23-1.62-3.85-1.62s-2.8.55-3.74,1.65c-.94,1.1-1.41,2.91-1.41,5.45Z"/>
      </g>
    </g>
  </g>
</svg>