<svg width="181" height="69" viewBox="0 0 181 69" fill="none" xmlns="http://www.w3.org/2000/svg">
<g clip-path="url(#clip0_85_532)">
<path d="M49.1157 0V48.2488H8.35825L40.8908 24.4449V18.1332L21.5659 32.2722V27.2132H16.5052V35.8667L0 48.1146V53.6458H61.6141L70.8929 61.9881H0V67.3852H83.5649V20.534L78.2501 17.3606L49.1157 0ZM78.5042 62.6453L63.3647 48.2488H53.774V8.6079L78.5042 23.4524V62.6453Z" fill="#A3A3A3"/>
<path d="M92.9746 64.464C92.9746 62.7366 93.9279 61.6797 95.2082 61.6797C95.8219 61.6797 96.2998 61.9908 96.5916 62.3422L96.247 62.7848C95.9778 62.4817 95.6483 62.2779 95.2182 62.2779C94.2649 62.2779 93.6361 63.1121 93.6361 64.4479C93.6361 65.7838 94.2423 66.6502 95.1956 66.6502C95.6785 66.6502 96.0407 66.4222 96.3627 66.044L96.7148 66.4705C96.3149 66.9614 95.8244 67.2484 95.1704 67.2484C93.9103 67.2484 92.9746 66.2157 92.9746 64.464Z" fill="#A3A3A3"/>
<path d="M97.1375 64.4399C97.1375 62.7205 98.0203 61.6797 99.288 61.6797C100.556 61.6797 101.446 62.7285 101.446 64.4399C101.446 66.1513 100.556 67.2484 99.288 67.2484C98.0203 67.2484 97.1375 66.1674 97.1375 64.4399ZM100.777 64.4399C100.777 63.1041 100.186 62.2779 99.288 62.2779C98.3901 62.2779 97.799 63.1041 97.799 64.4399C97.799 65.7757 98.3901 66.6502 99.288 66.6502C100.186 66.6502 100.777 65.7811 100.777 64.4399Z" fill="#A3A3A3"/>
<path d="M102.528 61.7759H103.189L105.01 65.1504L105.556 66.2636H105.586C105.556 65.7217 105.508 65.1182 105.508 64.5522V61.7759H106.114V67.1488H105.453L103.624 63.7662L103.078 62.6611H103.048C103.086 63.2029 103.134 63.7743 103.134 64.3403V67.1488H102.528V61.7759Z" fill="#A3A3A3"/>
<path d="M107.125 66.4544L107.51 65.9796C107.87 66.382 108.378 66.6502 108.901 66.6502C109.563 66.6502 109.953 66.2988 109.953 65.7731C109.953 65.2473 109.593 65.0515 109.115 64.8235L108.393 64.4882C107.918 64.2763 107.372 63.89 107.372 63.1041C107.372 62.3181 108.041 61.6797 108.954 61.6797C109.553 61.6797 110.083 61.9506 110.443 62.3422L110.099 62.7848C109.792 62.4737 109.422 62.2779 108.954 62.2779C108.393 62.2779 108.016 62.581 108.016 63.0638C108.016 63.5788 108.454 63.7773 108.853 63.9571L109.568 64.2843C110.151 64.5552 110.604 64.9227 110.604 65.7167C110.604 66.5697 109.95 67.2484 108.891 67.2484C108.184 67.2484 107.563 66.9372 107.125 66.4544Z" fill="#A3A3A3"/>
<path d="M112.486 62.3499H110.966V61.7759H114.654V62.3499H113.132V67.1488H112.488V62.3499H112.486Z" fill="#A3A3A3"/>
<path d="M115.557 61.7759H117.131C118.16 61.7759 118.897 62.1702 118.897 63.2834C118.897 64.1176 118.452 64.6273 117.76 64.807L119.043 67.1488H118.321L117.109 64.8794H116.196V67.1488H115.559V61.7759H115.557ZM117.038 64.3242C117.82 64.3242 118.258 63.9808 118.258 63.2834C118.258 62.586 117.82 62.3258 117.038 62.3258H116.193V64.3242H117.038Z" fill="#A3A3A3"/>
<path d="M119.903 64.9304V61.7759H120.54V64.9465C120.54 66.2394 121.055 66.6498 121.714 66.6498C122.373 66.6498 122.904 66.2394 122.904 64.9465V61.7759H123.518V64.9304C123.518 66.6579 122.743 67.248 121.712 67.248C120.68 67.248 119.898 66.6579 119.898 64.9304H119.903Z" fill="#A3A3A3"/>
<path d="M126.091 68.6725C126.734 68.6242 126.928 68.5008 126.928 68.2621C126.928 68.0502 126.775 67.9349 126.337 67.8678L126.621 67.2374C125.447 67.1543 124.586 66.1403 124.586 64.4611C124.586 62.7819 125.54 61.6768 126.822 61.6768C127.436 61.6768 127.914 61.9879 128.206 62.3393L127.861 62.7819C127.592 62.4788 127.263 62.2749 126.833 62.2749C125.879 62.2749 125.25 63.1092 125.25 64.445C125.25 65.7809 125.857 66.6473 126.81 66.6473C127.293 66.6473 127.655 66.4193 127.977 66.0411L128.329 66.4676C127.985 66.8941 127.57 67.165 127.039 67.2294L126.863 67.672C127.215 67.7632 127.424 67.9188 127.424 68.2541C127.424 68.7289 126.971 68.9595 126.156 68.9998L126.096 68.6725H126.091Z" fill="#A3A3A3"/>
<path d="M128.747 64.4397C128.747 62.7203 129.63 61.6795 130.897 61.6795C132.165 61.6795 133.055 62.7283 133.055 64.4397C133.055 66.1511 132.165 67.2482 130.897 67.2482C129.63 67.2482 128.747 66.1672 128.747 64.4397ZM132.389 64.4397C132.389 63.1039 131.798 62.2777 130.9 62.2777C130.002 62.2777 129.411 63.1039 129.411 64.4397C129.411 65.7756 130.002 66.65 130.9 66.65C131.798 66.65 132.389 65.7809 132.389 64.4397ZM130.336 60.7621C130.145 60.7621 129.999 60.9499 129.967 61.304L129.537 61.2718C129.567 60.6495 129.859 60.2632 130.319 60.2632C130.895 60.2632 131.094 60.8453 131.456 60.8453C131.647 60.8453 131.785 60.6575 131.826 60.3034L132.256 60.3356C132.225 60.966 131.934 61.3442 131.473 61.3442C130.897 61.3442 130.699 60.7621 130.336 60.7621Z" fill="#A3A3A3"/>
<path d="M134.137 61.7759H137.04V62.3499H134.773V64.0372H136.685V64.6192H134.773V66.5694H137.115V67.1515H134.135V61.7786L134.137 61.7759Z" fill="#A3A3A3"/>
<path d="M137.814 66.4544L138.199 65.9796C138.561 66.382 139.067 66.6502 139.59 66.6502C140.252 66.6502 140.642 66.2988 140.642 65.7731C140.642 65.2473 140.279 65.0515 139.804 64.8235L139.082 64.4882C138.607 64.2763 138.061 63.89 138.061 63.1041C138.061 62.3181 138.73 61.6797 139.643 61.6797C140.242 61.6797 140.772 61.9506 141.132 62.3422L140.788 62.7848C140.481 62.4737 140.111 62.2779 139.643 62.2779C139.082 62.2779 138.705 62.581 138.705 63.0638C138.705 63.5788 139.143 63.7773 139.542 63.9571L140.257 64.2843C140.84 64.5552 141.293 64.9227 141.293 65.7167C141.293 66.5697 140.639 67.2484 139.58 67.2484C138.873 67.2484 138.252 66.9372 137.814 66.4544Z" fill="#A3A3A3"/>
<path d="M143.818 61.7759H146.721V62.3499H144.455V64.0372H146.366V64.6192H144.455V66.5694H146.797V67.1515H143.816V61.7786L143.818 61.7759Z" fill="#A3A3A3"/>
<path d="M149.032 66.4544L149.417 65.9796C149.779 66.382 150.285 66.6502 150.808 66.6502C151.47 66.6502 151.86 66.2988 151.86 65.7731C151.86 65.2473 151.497 65.0515 151.022 64.8235L150.3 64.4882C149.825 64.2763 149.279 63.89 149.279 63.1041C149.279 62.3181 149.948 61.6797 150.861 61.6797C151.46 61.6797 151.99 61.9506 152.35 62.3422L152.006 62.7848C151.699 62.4737 151.329 62.2779 150.861 62.2779C150.3 62.2779 149.923 62.581 149.923 63.0638C149.923 63.5788 150.361 63.7773 150.76 63.9571L151.475 64.2843C152.058 64.5552 152.511 64.9227 152.511 65.7167C152.511 66.5697 151.857 67.2484 150.798 67.2484C150.091 67.2484 149.47 66.9372 149.032 66.4544Z" fill="#A3A3A3"/>
<path d="M153.502 61.7759H156.405V62.3499H154.138V64.0372H156.05V64.6192H154.138V66.5694H156.48V67.1515H153.5V61.7786L153.502 61.7759Z" fill="#A3A3A3"/>
<path d="M157.547 61.7759H159.121C160.15 61.7759 160.887 62.1702 160.887 63.2834C160.887 64.1176 160.442 64.6273 159.75 64.807L161.033 67.1488H160.311L159.099 64.8794H158.186V67.1488H157.549V61.7759H157.547ZM159.031 64.3242C159.813 64.3242 160.251 63.9808 160.251 63.2834C160.251 62.586 159.813 62.3258 159.031 62.3258H158.186V64.3242H159.031Z" fill="#A3A3A3"/>
<path d="M161.264 61.7759H161.948L162.756 64.6756C162.939 65.314 163.055 65.821 163.246 66.454H163.276C163.46 65.8237 163.583 65.3167 163.759 64.6756L164.567 61.7759H165.221L163.623 67.1488H162.879L161.267 61.7759H161.264Z" fill="#A3A3A3"/>
<path d="M165.91 61.7759H166.546V67.1488H165.91V61.7759Z" fill="#A3A3A3"/>
<path d="M169.142 68.6725C169.786 68.6242 169.98 68.5008 169.98 68.2621C169.98 68.0502 169.826 67.9349 169.389 67.8678L169.673 67.2374C168.498 67.1543 167.638 66.1403 167.638 64.4611C167.638 62.7819 168.591 61.6768 169.874 61.6768C170.488 61.6768 170.966 61.9879 171.257 62.3393L170.913 62.7819C170.644 62.4788 170.314 62.2749 169.884 62.2749C168.931 62.2749 168.302 63.1092 168.302 64.445C168.302 65.7809 168.908 66.6473 169.861 66.6473C170.344 66.6473 170.707 66.4193 171.029 66.0411L171.381 66.4676C171.036 66.8941 170.621 67.165 170.09 67.2294L169.914 67.672C170.266 67.7632 170.475 67.9188 170.475 68.2541C170.475 68.7289 170.022 68.9595 169.207 68.9998L169.147 68.6725H169.142Z" fill="#A3A3A3"/>
<path d="M171.798 64.4399C171.798 62.7205 172.681 61.6797 173.949 61.6797C175.216 61.6797 176.107 62.7285 176.107 64.4399C176.107 66.1513 175.216 67.2484 173.949 67.2484C172.681 67.2484 171.798 66.1674 171.798 64.4399ZM175.438 64.4399C175.438 63.1041 174.847 62.2779 173.949 62.2779C173.051 62.2779 172.46 63.1041 172.46 64.4399C172.46 65.7757 173.051 66.6502 173.949 66.6502C174.847 66.6502 175.438 65.7811 175.438 64.4399Z" fill="#A3A3A3"/>
<path d="M176.819 66.4544L177.203 65.9796C177.563 66.382 178.071 66.6502 178.594 66.6502C179.256 66.6502 179.646 66.2988 179.646 65.7731C179.646 65.2473 179.286 65.0515 178.808 64.8235L178.086 64.4882C177.611 64.2763 177.065 63.89 177.065 63.1041C177.065 62.3181 177.734 61.6797 178.647 61.6797C179.246 61.6797 179.777 61.9506 180.136 62.3422L179.792 62.7848C179.485 62.4737 179.115 62.2779 178.647 62.2779C178.086 62.2779 177.709 62.581 177.709 63.0638C177.709 63.5788 178.147 63.7773 178.547 63.9571L179.261 64.2843C179.844 64.5552 180.297 64.9227 180.297 65.7167C180.297 66.5697 179.643 67.2484 178.584 67.2484C177.878 67.2484 177.256 66.9372 176.819 66.4544Z" fill="#A3A3A3"/>
<path d="M93.1331 20.2847L97.3939 21.9102V56.2077H93.1331V20.2847Z" fill="#A3A3A3"/>
<path d="M106.635 20.2847L110.896 21.9129V52.3182H125.633V56.205H106.635V20.2847Z" fill="#A3A3A3"/>
<path d="M148.871 50.2983C148.685 50.8991 147.772 53.7962 145.29 55.1561C143.891 55.9206 142.279 56.0521 141.074 56.1513C140.589 56.1916 140.219 56.1969 140.05 56.1969C137.762 56.2077 134.313 56.2157 129.572 56.1969C129.577 54.9013 129.582 53.603 129.589 52.3074C130.616 52.3074 140.782 52.3289 141.404 52.2779C141.565 52.2645 141.738 52.2377 141.738 52.2377C142.141 52.1787 142.4 52.0955 142.5 52.0606C142.598 52.0258 142.691 51.9909 142.785 51.948C143.051 51.8192 143.295 51.6556 143.532 51.4383C144.11 50.9072 144.523 50.1695 144.772 49.3407C144.774 49.3407 144.774 49.3353 144.774 49.3353C145.104 48.2274 145.141 46.9613 144.877 45.8213C144.789 45.4243 144.658 45.0407 144.497 44.6866C143.781 43.1362 142.402 42.1679 139.401 40.7649C139.389 40.7596 134.615 38.5385 134.615 38.5385C131.823 37.2912 128.669 35.1506 127.977 31.0572C127.977 31.0465 127.975 31.0385 127.975 31.0304C127.894 30.5476 127.849 30.0379 127.844 29.4988C127.844 29.4317 127.841 29.3646 127.841 29.2949C127.844 29.0776 127.851 28.8577 127.869 28.6458C127.869 28.6001 127.871 28.5572 127.877 28.5116C128.043 27.1087 128.126 26.6849 128.126 26.6849C128.508 24.7214 129.662 23.2273 129.662 23.2273C131.345 21.0491 133.815 20.6012 134.7 20.4429C135.166 20.3597 136.023 20.3544 137.734 20.3115C139.017 20.2793 140.262 20.2766 141.461 20.298H141.474C143.451 20.3034 145.431 20.3061 147.408 20.3115C147.41 21.6071 147.413 22.9027 147.418 24.1983C146.261 24.2063 145.096 24.2117 143.924 24.2117C142.91 24.2117 141.902 24.209 140.898 24.2037H140.886C140.362 24.1929 139.605 24.1822 138.69 24.1902C136.974 24.2037 136.106 24.2117 135.649 24.3485C135.312 24.4504 133.37 25.062 132.53 27.0202C131.866 28.5653 132.241 30.1291 132.381 30.7085C132.407 30.8158 132.527 31.3228 132.756 31.8217C133.47 33.3749 134.851 34.3432 137.852 35.7434C137.862 35.7488 142.639 37.9699 142.639 37.9699C145.431 39.2199 148.582 41.3631 149.274 45.4538C149.274 45.4592 149.274 45.4699 149.276 45.4806C149.324 46.0037 149.513 48.2167 148.871 50.3036V50.2983Z" fill="#A3A3A3"/>
</g>
<defs>
<clipPath id="clip0_85_532">
<rect width="180.297" height="69" fill="white"/>
</clipPath>
</defs>
</svg>
